{
  "source": "C:\\Users\\Peter\\Desktop\\stuff\\MIUN\\quantitative_research\\video_compression\\videos\\BVI-HD\\BVI-HD_CDVL_videos\\ORIG\\Bookcase_1920x1080_60fps.mp4",
  "output": "C:\\Users\\Peter\\Desktop\\stuff\\MIUN\\quantitative_research\\video_compression\\compressed_videos\\BVI-HD\\hevc\\1.5\\Bookcase_1920x1080_60fps_hevc.mp4",
  "codec": "hevc",
  "ok": "Input #0, mov,mp4,m4a,3gp,3g2,mj2, from 'C:\\Users\\Peter\\Desktop\\stuff\\MIUN\\quantitative_research\\video_compression\\videos\\BVI-HD\\BVI-HD_CDVL_videos\\ORIG\\Bookcase_1920x1080_60fps.mp4':\n  Metadata:\n    major_brand     : isom\n    minor_version   : 512\n    compatible_brands: isomiso2avc1mp41\n    encoder         : Lavf54.28.101\n  Duration: 00:00:05.00, start: 0.000000, bitrate: 336321 kb/s\n  Stream #0:0[0x1](und): Video: h264 (High 4:4:4 Predictive) (avc1 / 0x31637661), yuv420p(progressive), 1920x1080, 336316 kb/s, 60 fps, 60 tbr, 60 tbn (default)\n    Metadata:\n      handler_name    : VideoHandler\n      vendor_id       : [0][0][0][0]\n[out#0/mp4 @ 000001bd3465f040] Codec AVOption b:a (set bitrate (in bits/s)) has not been used for any stream. The most likely reason is either wrong type (e.g. a video option with no video streams) or that it is a private option of some decoder which was not actually used for any stream.\nStream mapping:\n  Stream #0:0 -> #0:0 (h264 (native) -> hevc (libx265))\nPress [q] to stop, [?] for help\n[libx265 @ 000001bd33dda940] Unknown option: \"aq-mode.\nx265 [info]: HEVC encoder version 4.1+190-8f11c33ac\nx265 [info]: build info [Windows][GCC 15.1.0][64 bit] 10bit\nx265 [info]: using cpu capabilities: MMX2 SSE2Fast LZCNT SSSE3 SSE4.2 AVX FMA3 BMI2 AVX2\nx265 [info]: Main 10 profile, Level-4.1 (Main tier)\nx265 [info]: Thread pool created using 12 threads\nx265 [info]: Slices                              : 1\nx265 [info]: frame threads / pool features       : 3 / wpp(17 rows)\nx265 [info]: Coding QT: max CU size, min CU size : 64 / 8\nx265 [info]: Residual QT: max TU size, max depth : 32 / 1 inter / 1 intra\nx265 [info]: ME / range / subpel / merge         : star / 57 / 3 / 3\nx265 [info]: Keyframe min / max / scenecut / bias  : 25 / 250 / 40 / 5.00 \nx265 [info]: Lookahead / bframes / badapt        : 25 / 4 / 2\nx265 [info]: b-pyramid / weightp / weightb       : 1 / 1 / 0\nx265 [info]: References / ref-limit  cu / depth  : 4 / on / on\nx265 [info]: AQ: mode / str / qg-size / cu-tree  : 2 / 1.0 / 32 / 1\nx265 [info]: Rate Control / qCompress            : ABR-1500 kbps / 0.60\nx265 [info]: VBV/HRD buffer / max-rate / init    : 1500 / 1500 / 0.750\nx265 [info]: tools: rect limit-modes rd=4 psy-rd=2.00 rdoq=2 psy-rdoq=1.00\nx265 [info]: tools: rskip mode=1 signhide tmvp strong-intra-smoothing lslices=4\nx265 [info]: tools: deblock sao dhdr10-info\nOutput #0, mp4, to 'C:\\Users\\Peter\\Desktop\\stuff\\MIUN\\quantitative_research\\video_compression\\compressed_videos\\BVI-HD\\hevc\\1.5\\Bookcase_1920x1080_60fps_hevc.mp4':\n  Metadata:\n    major_brand     : isom\n    minor_version   : 512\n    compatible_brands: isomiso2avc1mp41\n    encoder         : Lavf62.3.100\n  Stream #0:0(und): Video: hevc (hev1 / 0x31766568), yuv420p10le(tv, progressive), 1920x1080, q=2-31, 1500 kb/s, 60 fps, 15360 tbn (default)\n    Metadata:\n      encoder         : Lavc62.11.100 libx265\n      handler_name    : VideoHandler\n      vendor_id       : [0][0][0][0]\n    Side data:\n      cpb: bitrate max/min/avg: 1500000/0/1500000 buffer size: 1500000 vbv_delay: N/A\nframe=    0 fps=0.0 q=0.0 size=       0KiB time=N/A bitrate=N/A speed=N/A elapsed=0:00:00.51    \nframe=    0 fps=0.0 q=0.0 size=       0KiB time=N/A bitrate=N/A speed=N/A elapsed=0:00:01.03    \nframe=    0 fps=0.0 q=0.0 size=       0KiB time=N/A bitrate=N/A speed=N/A elapsed=0:00:01.55    \nframe=    0 fps=0.0 q=0.0 size=       0KiB time=N/A bitrate=N/A speed=N/A elapsed=0:00:02.07    \nframe=    0 fps=0.0 q=0.0 size=       0KiB time=N/A bitrate=N/A speed=N/A elapsed=0:00:02.57    \nframe=    0 fps=0.0 q=0.0 size=       0KiB time=N/A bitrate=N/A speed=N/A elapsed=0:00:03.10    \nframe=    0 fps=0.0 q=0.0 size=       0KiB time=N/A bitrate=N/A speed=N/A elapsed=0:00:03.62    \nframe=    1 fps=0.2 q=41.1 size=       0KiB time=-00:00:00.01 bitrate=N/A speed=N/A elapsed=0:00:04.12    \nframe=    3 fps=0.6 q=50.0 size=       0KiB time=00:00:00.01 bitrate=  21.1kbits/s speed=0.00359x elapsed=0:00:04.64    \nframe=    4 fps=0.8 q=51.0 size=       0KiB time=00:00:00.03 bitrate=  10.6kbits/s speed=0.00645x elapsed=0:00:05.16    \nframe=    5 fps=0.9 q=47.0 size=       0KiB time=00:00:00.05 bitrate=   7.0kbits/s speed=0.00879x elapsed=0:00:05.69    \nframe=    6 fps=1.0 q=41.0 size=       0KiB time=00:00:00.06 bitrate=   5.3kbits/s speed=0.0107x elapsed=0:00:06.20    \nframe=    8 fps=1.2 q=41.7 size=       0KiB time=00:00:00.10 bitrate=   3.5kbits/s speed=0.0148x elapsed=0:00:06.73    \nframe=    8 fps=1.1 q=41.7 size=       0KiB time=00:00:00.10 bitrate=   3.5kbits/s speed=0.0138x elapsed=0:00:07.25    \nframe=    9 fps=1.2 q=41.2 size=       0KiB time=00:00:00.11 bitrate=   3.0kbits/s speed=0.015x elapsed=0:00:07.77    \nframe=   11 fps=1.3 q=37.1 size=       0KiB time=00:00:00.15 bitrate=   2.3kbits/s speed=0.0181x elapsed=0:00:08.28    \nframe=   13 fps=1.5 q=43.0 size=       0KiB time=00:00:00.18 bitrate=   1.9kbits/s speed=0.0208x elapsed=0:00:08.80    \nframe=   13 fps=1.4 q=43.0 size=       0KiB time=00:00:00.18 bitrate=   1.9kbits/s speed=0.0197x elapsed=0:00:09.32    \nframe=   15 fps=1.5 q=44.0 size=       0KiB time=00:00:00.21 bitrate=   1.6kbits/s speed=0.022x elapsed=0:00:09.82    \nframe=   16 fps=1.5 q=36.9 size=       0KiB time=00:00:00.23 bitrate=   1.5kbits/s speed=0.0225x elapsed=0:00:10.35    \nframe=   17 fps=1.6 q=43.0 size=       0KiB time=00:00:00.25 bitrate=   1.4kbits/s speed=0.023x elapsed=0:00:10.87    \nframe=   18 fps=1.6 q=44.0 size=       0KiB time=00:00:00.26 bitrate=   1.3kbits/s speed=0.0234x elapsed=0:00:11.38    \nframe=   20 fps=1.7 q=42.0 size=       0KiB time=00:00:00.30 bitrate=   1.2kbits/s speed=0.0252x elapsed=0:00:11.89    \nframe=   21 fps=1.7 q=35.8 size=       0KiB time=00:00:00.31 bitrate=   1.1kbits/s speed=0.0255x elapsed=0:00:12.41    \nframe=   22 fps=1.7 q=40.9 size=       0KiB time=00:00:00.33 bitrate=   1.1kbits/s speed=0.0258x elapsed=0:00:12.92    \nframe=   23 fps=1.7 q=41.9 size=       0KiB time=00:00:00.35 bitrate=   1.0kbits/s speed=0.026x elapsed=0:00:13.44    \nframe=   24 fps=1.7 q=35.4 size=       0KiB time=00:00:00.36 bitrate=   1.0kbits/s speed=0.0262x elapsed=0:00:13.97    \nframe=   25 fps=1.7 q=40.4 size=       0KiB time=00:00:00.38 bitrate=   0.9kbits/s speed=0.0265x elapsed=0:00:14.49    \nframe=   26 fps=1.7 q=41.8 size=       0KiB time=00:00:00.40 bitrate=   0.9kbits/s speed=0.0266x elapsed=0:00:15.01    \nframe=   27 fps=1.7 q=35.4 size=       0KiB time=00:00:00.41 bitrate=   0.8kbits/s speed=0.0269x elapsed=0:00:15.51    \nframe=   28 fps=1.7 q=38.5 size=       0KiB time=00:00:00.43 bitrate=   0.8kbits/s speed=0.027x elapsed=0:00:16.05    \nframe=   29 fps=1.7 q=41.0 size=       0KiB time=00:00:00.45 bitrate=   0.8kbits/s speed=0.0271x elapsed=0:00:16.62    \nframe=   29 fps=1.7 q=41.0 size=       0KiB time=00:00:00.45 bitrate=   0.8kbits/s speed=0.0263x elapsed=0:00:17.14    \nframe=   29 fps=1.6 q=41.0 size=       0KiB time=00:00:00.45 bitrate=   0.8kbits/s speed=0.0255x elapsed=0:00:17.67    \nframe=   29 fps=1.6 q=41.0 size=       0KiB time=00:00:00.45 bitrate=   0.8kbits/s speed=0.0247x elapsed=0:00:18.21    \nframe=   30 fps=1.6 q=34.9 size=       0KiB time=00:00:00.46 bitrate=   0.8kbits/s speed=0.0249x elapsed=0:00:18.73    \nframe=   31 fps=1.6 q=41.0 size=       0KiB time=00:00:00.48 bitrate=   0.7kbits/s speed=0.0251x elapsed=0:00:19.25    \nframe=   31 fps=1.6 q=41.0 size=       0KiB time=00:00:00.48 bitrate=   0.7kbits/s speed=0.0244x elapsed=0:00:19.77    \nframe=   31 fps=1.5 q=41.0 size=       0KiB time=00:00:00.48 bitrate=   0.7kbits/s speed=0.0238x elapsed=0:00:20.28    \nframe=   32 fps=1.5 q=34.3 size=       0KiB time=00:00:00.50 bitrate=   0.7kbits/s speed=0.024x elapsed=0:00:20.80    \nframe=   32 fps=1.5 q=34.3 size=       0KiB time=00:00:00.50 bitrate=   0.7kbits/s speed=0.0234x elapsed=0:00:21.34    \nframe=   33 fps=1.5 q=38.9 size=       0KiB time=00:00:00.51 bitrate=   0.7kbits/s speed=0.0236x elapsed=0:00:21.88    \nframe=   33 fps=1.5 q=38.9 size=       0KiB time=00:00:00.51 bitrate=   0.7kbits/s speed=0.023x elapsed=0:00:22.42    \nframe=   34 fps=1.5 q=33.8 size=       0KiB time=00:00:00.53 bitrate=   0.7kbits/s speed=0.0232x elapsed=0:00:22.95    \nframe=   35 fps=1.5 q=37.8 size=       0KiB time=00:00:00.55 bitrate=   0.6kbits/s speed=0.0234x elapsed=0:00:23.48    \nframe=   35 fps=1.5 q=37.8 size=       0KiB time=00:00:00.55 bitrate=   0.6kbits/s speed=0.0229x elapsed=0:00:24.03    \nframe=   35 fps=1.4 q=37.8 size=       0KiB time=00:00:00.55 bitrate=   0.6kbits/s speed=0.0224x elapsed=0:00:24.56    \nframe=   35 fps=1.4 q=37.8 size=       0KiB time=00:00:00.55 bitrate=   0.6kbits/s speed=0.0219x elapsed=0:00:25.16    \nframe=   35 fps=1.4 q=37.8 size=       0KiB time=00:00:00.55 bitrate=   0.6kbits/s speed=0.0213x elapsed=0:00:25.77    \nframe=   35 fps=1.3 q=37.8 size=       0KiB time=00:00:00.55 bitrate=   0.6kbits/s speed=0.0209x elapsed=0:00:26.35    \nframe=   35 fps=1.3 q=37.8 size=       0KiB time=00:00:00.55 bitrate=   0.6kbits/s speed=0.0205x elapsed=0:00:26.87    \nframe=   35 fps=1.3 q=37.8 size=       0KiB time=00:00:00.55 bitrate=   0.6kbits/s speed=0.0201x elapsed=0:00:27.41    \nframe=   35 fps=1.3 q=37.8 size=       0KiB time=00:00:00.55 bitrate=   0.6kbits/s speed=0.0197x elapsed=0:00:27.95    \nframe=   36 fps=1.3 q=38.8 size=       0KiB time=00:00:00.56 bitrate=   0.6kbits/s speed=0.0199x elapsed=0:00:28.48    \nframe=   36 fps=1.2 q=38.8 size=       0KiB time=00:00:00.56 bitrate=   0.6kbits/s speed=0.0195x elapsed=0:00:29.01    \nframe=   36 fps=1.2 q=38.8 size=       0KiB time=00:00:00.56 bitrate=   0.6kbits/s speed=0.0192x elapsed=0:00:29.54    \nframe=   36 fps=1.2 q=38.8 size=       0KiB time=00:00:00.56 bitrate=   0.6kbits/s speed=0.0188x elapsed=0:00:30.15    \nframe=   36 fps=1.2 q=38.8 size=       0KiB time=00:00:00.56 bitrate=   0.6kbits/s speed=0.0184x elapsed=0:00:30.76    \nframe=   36 fps=1.2 q=38.8 size=       0KiB time=00:00:00.56 bitrate=   0.6kbits/s speed=0.0181x elapsed=0:00:31.29    \nframe=   37 fps=1.2 q=37.8 size=       0KiB time=00:00:00.58 bitrate=   0.6kbits/s speed=0.0183x elapsed=0:00:31.87    \nframe=   37 fps=1.1 q=37.8 size=       0KiB time=00:00:00.58 bitrate=   0.6kbits/s speed=0.018x elapsed=0:00:32.42    \nframe=   37 fps=1.1 q=37.8 size=       0KiB time=00:00:00.58 bitrate=   0.6kbits/s speed=0.0177x elapsed=0:00:32.98    \nframe=   38 fps=1.1 q=33.6 size=       0KiB time=00:00:00.60 bitrate=   0.6kbits/s speed=0.0179x elapsed=0:00:33.53    \nframe=   38 fps=1.1 q=33.6 size=       0KiB time=00:00:00.60 bitrate=   0.6kbits/s speed=0.0176x elapsed=0:00:34.05    \nframe=   38 fps=1.1 q=33.6 size=       0KiB time=00:00:00.60 bitrate=   0.6kbits/s speed=0.0173x elapsed=0:00:34.59    \nframe=   39 fps=1.1 q=38.2 size=       0KiB time=00:00:00.61 bitrate=   0.6kbits/s speed=0.0175x elapsed=0:00:35.18    \nframe=   39 fps=1.1 q=38.2 size=       0KiB time=00:00:00.61 bitrate=   0.6kbits/s speed=0.0173x elapsed=0:00:35.73    \nframe=   39 fps=1.1 q=38.2 size=       0KiB time=00:00:00.61 bitrate=   0.6kbits/s speed=0.017x elapsed=0:00:36.26    \nframe=   40 fps=1.1 q=38.9 size=       0KiB time=00:00:00.63 bitrate=   0.6kbits/s speed=0.0172x elapsed=0:00:36.82    \nframe=   40 fps=1.1 q=38.9 size=       0KiB time=00:00:00.63 bitrate=   0.6kbits/s speed=0.0169x elapsed=0:00:37.40    \nframe=   40 fps=1.1 q=38.9 size=       0KiB time=00:00:00.63 bitrate=   0.6kbits/s speed=0.0167x elapsed=0:00:37.95    \nframe=   40 fps=1.0 q=38.9 size=       0KiB time=00:00:00.63 bitrate=   0.6kbits/s speed=0.0164x elapsed=0:00:38.50    \nframe=   40 fps=1.0 q=38.9 size=       0KiB time=00:00:00.63 bitrate=   0.6kbits/s speed=0.0162x elapsed=0:00:39.11    \nframe=   40 fps=1.0 q=38.9 size=       0KiB time=00:00:00.63 bitrate=   0.6kbits/s speed=0.016x elapsed=0:00:39.68    \nframe=   40 fps=1.0 q=38.9 size=       0KiB time=00:00:00.63 bitrate=   0.6kbits/s speed=0.0157x elapsed=0:00:40.22    \nframe=   41 fps=1.0 q=37.7 size=       0KiB time=00:00:00.65 bitrate=   0.5kbits/s speed=0.0159x elapsed=0:00:40.78    \nframe=   41 fps=1.0 q=37.7 size=       0KiB time=00:00:00.65 bitrate=   0.5kbits/s speed=0.0157x elapsed=0:00:41.32    \nframe=   41 fps=1.0 q=37.7 size=       0KiB time=00:00:00.65 bitrate=   0.5kbits/s speed=0.0155x elapsed=0:00:41.86    \nframe=   41 fps=1.0 q=37.7 size=       0KiB time=00:00:00.65 bitrate=   0.5kbits/s speed=0.0153x elapsed=0:00:42.43    \nframe=   42 fps=1.0 q=37.7 size=       0KiB time=00:00:00.66 bitrate=   0.5kbits/s speed=0.0155x elapsed=0:00:42.98    \nframe=   42 fps=1.0 q=37.7 size=       0KiB time=00:00:00.66 bitrate=   0.5kbits/s speed=0.0153x elapsed=0:00:43.58    \nframe=   42 fps=1.0 q=37.7 size=       0KiB time=00:00:00.66 bitrate=   0.5kbits/s speed=0.0151x elapsed=0:00:44.11    \nframe=   43 fps=1.0 q=32.7 size=       0KiB time=00:00:00.68 bitrate=   0.5kbits/s speed=0.0153x elapsed=0:00:44.65    \nframe=   43 fps=0.9 q=32.7 size=       0KiB time=00:00:00.68 bitrate=   0.5kbits/s speed=0.0151x elapsed=0:00:45.26    \nframe=   43 fps=0.9 q=32.7 size=       0KiB time=00:00:00.68 bitrate=   0.5kbits/s speed=0.0149x elapsed=0:00:45.81    \nframe=   44 fps=0.9 q=37.5 size=       0KiB time=00:00:00.70 bitrate=   0.5kbits/s speed=0.0151x elapsed=0:00:46.33    \nframe=   44 fps=0.9 q=37.5 size=       0KiB time=00:00:00.70 bitrate=   0.5kbits/s speed=0.0149x elapsed=0:00:46.84    \nframe=   44 fps=0.9 q=37.5 size=       0KiB time=00:00:00.70 bitrate=   0.5kbits/s speed=0.0148x elapsed=0:00:47.45    \nframe=   44 fps=0.9 q=37.5 size=       0KiB time=00:00:00.70 bitrate=   0.5kbits/s speed=0.0146x elapsed=0:00:48.00    \nframe=   44 fps=0.9 q=37.5 size=       0KiB time=00:00:00.70 bitrate=   0.5kbits/s speed=0.0144x elapsed=0:00:48.60    \nframe=   44 fps=0.9 q=37.5 size=       0KiB time=00:00:00.70 bitrate=   0.5kbits/s speed=0.0142x elapsed=0:00:49.13    \nframe=   44 fps=0.9 q=37.5 size=       0KiB time=00:00:00.70 bitrate=   0.5kbits/s speed=0.0141x elapsed=0:00:49.65    \nframe=   44 fps=0.9 q=37.5 size=       0KiB time=00:00:00.70 bitrate=   0.5kbits/s speed=0.0139x elapsed=0:00:50.22    \nframe=   44 fps=0.9 q=37.5 size=       0KiB time=00:00:00.70 bitrate=   0.5kbits/s speed=0.0138x elapsed=0:00:50.78    \nframe=   44 fps=0.9 q=37.5 size=       0KiB time=00:00:00.70 bitrate=   0.5kbits/s speed=0.0136x elapsed=0:00:51.31    \nframe=   44 fps=0.8 q=37.5 size=       0KiB time=00:00:00.70 bitrate=   0.5kbits/s speed=0.0135x elapsed=0:00:51.91    \nframe=   44 fps=0.8 q=37.5 size=       0KiB time=00:00:00.70 bitrate=   0.5kbits/s speed=0.0133x elapsed=0:00:52.52    \nframe=   44 fps=0.8 q=37.5 size=       0KiB time=00:00:00.70 bitrate=   0.5kbits/s speed=0.0132x elapsed=0:00:53.11    \nframe=   44 fps=0.8 q=37.5 size=       0KiB time=00:00:00.70 bitrate=   0.5kbits/s speed=0.013x elapsed=0:00:53.85    \nframe=   44 fps=0.8 q=37.5 size=       0KiB time=00:00:00.70 bitrate=   0.5kbits/s speed=0.0129x elapsed=0:00:54.42    \nframe=   45 fps=0.8 q=38.0 size=       0KiB time=00:00:00.70 bitrate=   0.5kbits/s speed=0.0127x elapsed=0:00:55.00    \nframe=   45 fps=0.8 q=38.0 size=       0KiB time=00:00:00.71 bitrate=   0.5kbits/s speed=0.0129x elapsed=0:00:55.56    \nframe=   45 fps=0.8 q=38.0 size=       0KiB time=00:00:00.71 bitrate=   0.5kbits/s speed=0.0128x elapsed=0:00:56.14    \nframe=   45 fps=0.8 q=38.0 size=       0KiB time=00:00:00.71 bitrate=   0.5kbits/s speed=0.0126x elapsed=0:00:56.71    \nframe=   45 fps=0.8 q=38.0 size=       0KiB time=00:00:00.71 bitrate=   0.5kbits/s speed=0.0125x elapsed=0:00:57.32    \nframe=   45 fps=0.8 q=38.0 size=       0KiB time=00:00:00.71 bitrate=   0.5kbits/s speed=0.0124x elapsed=0:00:57.85    \nframe=   45 fps=0.8 q=38.0 size=       0KiB time=00:00:00.71 bitrate=   0.5kbits/s speed=0.0123x elapsed=0:00:58.38    \nframe=   45 fps=0.8 q=38.0 size=       0KiB time=00:00:00.71 bitrate=   0.5kbits/s speed=0.0122x elapsed=0:00:58.89    \nframe=   46 fps=0.8 q=37.0 size=       0KiB time=00:00:00.73 bitrate=   0.5kbits/s speed=0.0123x elapsed=0:00:59.42    \nframe=   47 fps=0.8 q=33.2 size=       0KiB time=00:00:00.75 bitrate=   0.5kbits/s speed=0.0125x elapsed=0:00:59.94    \nframe=   48 fps=0.8 q=36.8 size=       0KiB time=00:00:00.76 bitrate=   0.5kbits/s speed=0.0127x elapsed=0:01:00.45    \nframe=   48 fps=0.8 q=36.8 size=       0KiB time=00:00:00.76 bitrate=   0.5kbits/s speed=0.0126x elapsed=0:01:00.99    \nframe=   48 fps=0.8 q=36.8 size=       0KiB time=00:00:00.76 bitrate=   0.5kbits/s speed=0.0125x elapsed=0:01:01.52    \nframe=   48 fps=0.8 q=36.8 size=       0KiB time=00:00:00.76 bitrate=   0.5kbits/s speed=0.0123x elapsed=0:01:02.11    \nframe=   48 fps=0.8 q=36.8 size=       0KiB time=00:00:00.76 bitrate=   0.5kbits/s speed=0.0122x elapsed=0:01:02.72    \nframe=   48 fps=0.8 q=36.8 size=       0KiB time=00:00:00.76 bitrate=   0.5kbits/s speed=0.0121x elapsed=0:01:03.27    \nframe=   48 fps=0.8 q=36.8 size=       0KiB time=00:00:00.76 bitrate=   0.5kbits/s speed=0.012x elapsed=0:01:03.85    \nframe=   48 fps=0.7 q=36.8 size=       0KiB time=00:00:00.76 bitrate=   0.5kbits/s speed=0.0119x elapsed=0:01:04.42    \nframe=   49 fps=0.8 q=36.8 size=       0KiB time=00:00:00.78 bitrate=   0.4kbits/s speed=0.0121x elapsed=0:01:04.95    \nframe=   50 fps=0.8 q=36.5 size=       0KiB time=00:00:00.80 bitrate=   0.4kbits/s speed=0.0122x elapsed=0:01:05.48    \nframe=   50 fps=0.8 q=36.5 size=       0KiB time=00:00:00.80 bitrate=   0.4kbits/s speed=0.0121x elapsed=0:01:06.01    \nframe=   50 fps=0.8 q=36.5 size=       0KiB time=00:00:00.80 bitrate=   0.4kbits/s speed=0.012x elapsed=0:01:06.53    \nframe=   50 fps=0.7 q=36.5 size=       0KiB time=00:00:00.80 bitrate=   0.4kbits/s speed=0.0119x elapsed=0:01:07.07    \nframe=   51 fps=0.8 q=33.0 size=       0KiB time=00:00:00.81 bitrate=   0.4kbits/s speed=0.0121x elapsed=0:01:07.58    \nframe=   52 fps=0.8 q=36.5 size=       0KiB time=00:00:00.83 bitrate=   0.4kbits/s speed=0.0122x elapsed=0:01:08.15    \nframe=   52 fps=0.8 q=36.5 size=       0KiB time=00:00:00.83 bitrate=   0.4kbits/s speed=0.0121x elapsed=0:01:08.79    \nframe=   53 fps=0.8 q=36.8 size=       0KiB time=00:00:00.85 bitrate=   0.4kbits/s speed=0.0122x elapsed=0:01:09.40    \nframe=   53 fps=0.8 q=36.8 size=       0KiB time=00:00:00.85 bitrate=   0.4kbits/s speed=0.0121x elapsed=0:01:09.98    \nframe=   53 fps=0.8 q=36.8 size=       0KiB time=00:00:00.85 bitrate=   0.4kbits/s speed=0.012x elapsed=0:01:10.57    \nframe=   53 fps=0.7 q=36.8 size=       0KiB time=00:00:00.85 bitrate=   0.4kbits/s speed=0.0119x elapsed=0:01:11.18    \nframe=   53 fps=0.7 q=36.8 size=       0KiB time=00:00:00.85 bitrate=   0.4kbits/s speed=0.0119x elapsed=0:01:11.72    \nframe=   53 fps=0.7 q=36.8 size=       0KiB time=00:00:00.85 bitrate=   0.4kbits/s speed=0.0118x elapsed=0:01:12.28    \nframe=   53 fps=0.7 q=36.8 size=       0KiB time=00:00:00.85 bitrate=   0.4kbits/s speed=0.0117x elapsed=0:01:12.82    \nframe=   54 fps=0.7 q=36.8 size=       0KiB time=00:00:00.86 bitrate=   0.4kbits/s speed=0.0118x elapsed=0:01:13.35    \nframe=   54 fps=0.7 q=36.8 size=       0KiB time=00:00:00.86 bitrate=   0.4kbits/s speed=0.0117x elapsed=0:01:13.93    \nframe=   54 fps=0.7 q=36.8 size=       0KiB time=00:00:00.86 bitrate=   0.4kbits/s speed=0.0116x elapsed=0:01:14.50    \nframe=   54 fps=0.7 q=36.8 size=       0KiB time=00:00:00.86 bitrate=   0.4kbits/s speed=0.0116x elapsed=0:01:15.01    \nframe=   54 fps=0.7 q=36.8 size=       0KiB time=00:00:00.86 bitrate=   0.4kbits/s speed=0.0115x elapsed=0:01:15.56    \nframe=   55 fps=0.7 q=36.5 size=       0KiB time=00:00:00.88 bitrate=   0.4kbits/s speed=0.0116x elapsed=0:01:16.09    \nframe=   55 fps=0.7 q=36.5 size=       0KiB time=00:00:00.88 bitrate=   0.4kbits/s speed=0.0115x elapsed=0:01:16.63    \nframe=   55 fps=0.7 q=36.5 size=       0KiB time=00:00:00.88 bitrate=   0.4kbits/s speed=0.0114x elapsed=0:01:17.16    \nframe=   55 fps=0.7 q=36.5 size=       0KiB time=00:00:00.88 bitrate=   0.4kbits/s speed=0.0114x elapsed=0:01:17.74    \nframe=   55 fps=0.7 q=36.5 size=       0KiB time=00:00:00.88 bitrate=   0.4kbits/s speed=0.0113x elapsed=0:01:18.29    \nframe=   56 fps=0.7 q=33.1 size=       0KiB time=00:00:00.90 bitrate=   0.4kbits/s speed=0.0114x elapsed=0:01:18.81    \nframe=   56 fps=0.7 q=33.1 size=       0KiB time=00:00:00.90 bitrate=   0.4kbits/s speed=0.0113x elapsed=0:01:19.35    \nframe=   56 fps=0.7 q=33.1 size=       0KiB time=00:00:00.90 bitrate=   0.4kbits/s speed=0.0113x elapsed=0:01:19.92    \nframe=   56 fps=0.7 q=33.1 size=       0KiB time=00:00:00.90 bitrate=   0.4kbits/s speed=0.0112x elapsed=0:01:20.46    \nframe=   57 fps=0.7 q=35.8 size=       0KiB time=00:00:00.91 bitrate=   0.4kbits/s speed=0.0113x elapsed=0:01:21.04    \nframe=   57 fps=0.7 q=35.8 size=       0KiB time=00:00:00.91 bitrate=   0.4kbits/s speed=0.0112x elapsed=0:01:21.58    \nframe=   57 fps=0.7 q=35.8 size=       0KiB time=00:00:00.91 bitrate=   0.4kbits/s speed=0.0112x elapsed=0:01:22.19    \nframe=   57 fps=0.7 q=35.8 size=       0KiB time=00:00:00.91 bitrate=   0.4kbits/s speed=0.0111x elapsed=0:01:22.74    \nframe=   57 fps=0.7 q=35.8 size=       0KiB time=00:00:00.91 bitrate=   0.4kbits/s speed=0.011x elapsed=0:01:23.31    \nframe=   57 fps=0.7 q=35.8 size=       0KiB time=00:00:00.91 bitrate=   0.4kbits/s speed=0.0109x elapsed=0:01:23.87    \nframe=   57 fps=0.7 q=35.8 size=       0KiB time=00:00:00.91 bitrate=   0.4kbits/s speed=0.0109x elapsed=0:01:24.41    \nframe=   58 fps=0.7 q=36.6 size=       0KiB time=00:00:00.93 bitrate=   0.4kbits/s speed=0.011x elapsed=0:01:24.94    \nframe=   58 fps=0.7 q=36.6 size=       0KiB time=00:00:00.93 bitrate=   0.4kbits/s speed=0.0109x elapsed=0:01:25.50    \nframe=   58 fps=0.7 q=36.6 size=       0KiB time=00:00:00.93 bitrate=   0.4kbits/s speed=0.0108x elapsed=0:01:26.05    \nframe=   58 fps=0.7 q=36.6 size=       0KiB time=00:00:00.93 bitrate=   0.4kbits/s speed=0.0108x elapsed=0:01:26.61    \nframe=   58 fps=0.7 q=36.6 size=       0KiB time=00:00:00.93 bitrate=   0.4kbits/s speed=0.0107x elapsed=0:01:27.18    \nframe=   58 fps=0.7 q=36.6 size=       0KiB time=00:00:00.93 bitrate=   0.4kbits/s speed=0.0106x elapsed=0:01:27.73    \nframe=   58 fps=0.7 q=36.6 size=       0KiB time=00:00:00.93 bitrate=   0.4kbits/s speed=0.0106x elapsed=0:01:28.30    \nframe=   58 fps=0.7 q=36.6 size=       0KiB time=00:00:00.93 bitrate=   0.4kbits/s speed=0.0105x elapsed=0:01:28.89    \nframe=   58 fps=0.6 q=36.6 size=       0KiB time=00:00:00.93 bitrate=   0.4kbits/s speed=0.0104x elapsed=0:01:29.44    \nframe=   59 fps=0.7 q=36.8 size=       0KiB time=00:00:00.95 bitrate=   0.4kbits/s speed=0.0106x elapsed=0:01:29.99    \nframe=   59 fps=0.7 q=36.8 size=       0KiB time=00:00:00.95 bitrate=   0.4kbits/s speed=0.0105x elapsed=0:01:30.55    \nframe=   59 fps=0.6 q=36.8 size=       0KiB time=00:00:00.95 bitrate=   0.4kbits/s speed=0.0104x elapsed=0:01:31.11    \nframe=   60 fps=0.7 q=33.4 size=       0KiB time=00:00:00.96 bitrate=   0.4kbits/s speed=0.0105x elapsed=0:01:31.64    \nframe=   60 fps=0.7 q=33.4 size=       0KiB time=00:00:00.96 bitrate=   0.4kbits/s speed=0.0105x elapsed=0:01:32.16    \nframe=   61 fps=0.7 q=37.3 size=       0KiB time=00:00:00.98 bitrate=   0.4kbits/s speed=0.0106x elapsed=0:01:32.79    \nframe=   61 fps=0.7 q=37.3 size=       0KiB time=00:00:00.98 bitrate=   0.4kbits/s speed=0.0105x elapsed=0:01:33.34    \nframe=   61 fps=0.6 q=37.3 size=       0KiB time=00:00:00.98 bitrate=   0.4kbits/s speed=0.0105x elapsed=0:01:33.89    \nframe=   61 fps=0.6 q=37.3 size=       0KiB time=00:00:00.98 bitrate=   0.4kbits/s speed=0.0104x elapsed=0:01:34.53    \nframe=   61 fps=0.6 q=37.3 size=       0KiB time=00:00:00.98 bitrate=   0.4kbits/s speed=0.0103x elapsed=0:01:35.09    \nframe=   61 fps=0.6 q=37.3 size=       0KiB time=00:00:00.98 bitrate=   0.4kbits/s speed=0.0103x elapsed=0:01:35.61    \nframe=   61 fps=0.6 q=37.3 size=       0KiB time=00:00:00.98 bitrate=   0.4kbits/s speed=0.0102x elapsed=0:01:36.20    \nframe=   62 fps=0.6 q=37.8 size=       0KiB time=00:00:01.00 bitrate=   0.4kbits/s speed=0.0103x elapsed=0:01:36.75    \nframe=   62 fps=0.6 q=37.8 size=       0KiB time=00:00:01.00 bitrate=   0.4kbits/s speed=0.0103x elapsed=0:01:37.30    \nframe=   62 fps=0.6 q=37.8 size=       0KiB time=00:00:01.00 bitrate=   0.4kbits/s speed=0.0102x elapsed=0:01:37.81    \nframe=   62 fps=0.6 q=37.8 size=       0KiB time=00:00:01.00 bitrate=   0.4kbits/s speed=0.0102x elapsed=0:01:38.35    \nframe=   63 fps=0.6 q=37.9 size=       0KiB time=00:00:01.01 bitrate=   0.3kbits/s speed=0.0103x elapsed=0:01:38.90    \nframe=   63 fps=0.6 q=37.9 size=       0KiB time=00:00:01.01 bitrate=   0.3kbits/s speed=0.0102x elapsed=0:01:39.45    \nframe=   63 fps=0.6 q=37.9 size=       0KiB time=00:00:01.01 bitrate=   0.3kbits/s speed=0.0102x elapsed=0:01:39.99    \nframe=   63 fps=0.6 q=37.9 size=       0KiB time=00:00:01.01 bitrate=   0.3kbits/s speed=0.0101x elapsed=0:01:40.56    \nframe=   64 fps=0.6 q=33.4 size=       0KiB time=00:00:01.03 bitrate=   0.3kbits/s speed=0.0102x elapsed=0:01:41.11    \nframe=   65 fps=0.6 q=37.9 size=       0KiB time=00:00:01.05 bitrate=   0.3kbits/s speed=0.0103x elapsed=0:01:41.65    \nframe=   65 fps=0.6 q=37.9 size=       0KiB time=00:00:01.05 bitrate=   0.3kbits/s speed=0.0103x elapsed=0:01:42.19    \nframe=   66 fps=0.6 q=38.0 size=       0KiB time=00:00:01.06 bitrate=   0.3kbits/s speed=0.0104x elapsed=0:01:42.71    \nframe=   66 fps=0.6 q=38.0 size=       0KiB time=00:00:01.06 bitrate=   0.3kbits/s speed=0.0103x elapsed=0:01:43.28    \nframe=   66 fps=0.6 q=38.0 size=       0KiB time=00:00:01.06 bitrate=   0.3kbits/s speed=0.0103x elapsed=0:01:43.88    \nframe=   66 fps=0.6 q=38.0 size=       0KiB time=00:00:01.06 bitrate=   0.3kbits/s speed=0.0102x elapsed=0:01:44.47    \nframe=   66 fps=0.6 q=38.0 size=       0KiB time=00:00:01.06 bitrate=   0.3kbits/s speed=0.0102x elapsed=0:01:45.02    \nframe=   66 fps=0.6 q=38.0 size=       0KiB time=00:00:01.06 bitrate=   0.3kbits/s speed=0.0101x elapsed=0:01:45.56    \nframe=   66 fps=0.6 q=38.0 size=       0KiB time=00:00:01.06 bitrate=   0.3kbits/s speed=0.0101x elapsed=0:01:46.11    \nframe=   66 fps=0.6 q=38.0 size=       0KiB time=00:00:01.06 bitrate=   0.3kbits/s speed=0.01x elapsed=0:01:46.64    \nframe=   66 fps=0.6 q=38.0 size=       0KiB time=00:00:01.06 bitrate=   0.3kbits/s speed=0.00995x elapsed=0:01:47.16    \nframe=   67 fps=0.6 q=37.9 size=       0KiB time=00:00:01.08 bitrate=   0.3kbits/s speed=0.0101x elapsed=0:01:47.68    \nframe=   67 fps=0.6 q=37.9 size=       0KiB time=00:00:01.08 bitrate=   0.3kbits/s speed=0.01x elapsed=0:01:48.21    \nframe=   68 fps=0.6 q=37.7 size=       0KiB time=00:00:01.10 bitrate=   0.3kbits/s speed=0.0101x elapsed=0:01:48.74    \nframe=   68 fps=0.6 q=37.7 size=       0KiB time=00:00:01.10 bitrate=   0.3kbits/s speed=0.0101x elapsed=0:01:49.25    \nframe=   69 fps=0.6 q=33.0 size=       0KiB time=00:00:01.11 bitrate=   0.3kbits/s speed=0.0102x elapsed=0:01:49.78    \nframe=   69 fps=0.6 q=33.0 size=       0KiB time=00:00:01.11 bitrate=   0.3kbits/s speed=0.0101x elapsed=0:01:50.29    \nframe=   70 fps=0.6 q=37.4 size=       0KiB time=00:00:01.13 bitrate=   0.3kbits/s speed=0.0102x elapsed=0:01:50.83    \nframe=   70 fps=0.6 q=37.4 size=       0KiB time=00:00:01.13 bitrate=   0.3kbits/s speed=0.0102x elapsed=0:01:51.36    \nframe=   70 fps=0.6 q=37.4 size=       0KiB time=00:00:01.13 bitrate=   0.3kbits/s speed=0.0101x elapsed=0:01:51.90    \nframe=   70 fps=0.6 q=37.4 size=       0KiB time=00:00:01.13 bitrate=   0.3kbits/s speed=0.0101x elapsed=0:01:52.41    \nframe=   71 fps=0.6 q=38.0 size=       0KiB time=00:00:01.15 bitrate=   0.3kbits/s speed=0.0102x elapsed=0:01:52.95    \nframe=   71 fps=0.6 q=38.0 size=       0KiB time=00:00:01.15 bitrate=   0.3kbits/s speed=0.0101x elapsed=0:01:53.47    \nframe=   71 fps=0.6 q=38.0 size=       0KiB time=00:00:01.15 bitrate=   0.3kbits/s speed=0.0101x elapsed=0:01:53.99    \nframe=   72 fps=0.6 q=37.8 size=       0KiB time=00:00:01.16 bitrate=   0.3kbits/s speed=0.0102x elapsed=0:01:54.52    \nframe=   72 fps=0.6 q=37.8 size=       0KiB time=00:00:01.16 bitrate=   0.3kbits/s speed=0.0101x elapsed=0:01:55.03    \nframe=   73 fps=0.6 q=32.6 size=       0KiB time=00:00:01.18 bitrate=   0.3kbits/s speed=0.0102x elapsed=0:01:55.55    \nframe=   74 fps=0.6 q=36.9 size=       0KiB time=00:00:01.20 bitrate=   0.3kbits/s speed=0.0103x elapsed=0:01:56.06    \nframe=   75 fps=0.6 q=38.9 size=       0KiB time=00:00:01.21 bitrate=   0.3kbits/s speed=0.0104x elapsed=0:01:56.58    \nframe=   75 fps=0.6 q=38.9 size=       0KiB time=00:00:01.21 bitrate=   0.3kbits/s speed=0.0104x elapsed=0:01:57.11    \nframe=   75 fps=0.6 q=38.9 size=       0KiB time=00:00:01.21 bitrate=   0.3kbits/s speed=0.0103x elapsed=0:01:57.64    \nframe=   75 fps=0.6 q=38.9 size=       0KiB time=00:00:01.21 bitrate=   0.3kbits/s speed=0.0103x elapsed=0:01:58.16    \nframe=   75 fps=0.6 q=38.9 size=       0KiB time=00:00:01.21 bitrate=   0.3kbits/s speed=0.0103x elapsed=0:01:58.68    \nframe=   75 fps=0.6 q=38.9 size=       0KiB time=00:00:01.21 bitrate=   0.3kbits/s speed=0.0102x elapsed=0:01:59.20    \nframe=   75 fps=0.6 q=38.9 size=       0KiB time=00:00:01.21 bitrate=   0.3kbits/s speed=0.0102x elapsed=0:01:59.73    \nframe=   76 fps=0.6 q=39.0 size=       0KiB time=00:00:01.23 bitrate=   0.3kbits/s speed=0.0103x elapsed=0:02:00.26    \nframe=   76 fps=0.6 q=39.0 size=       0KiB time=00:00:01.23 bitrate=   0.3kbits/s speed=0.0102x elapsed=0:02:00.78    \nframe=   77 fps=0.6 q=38.0 size=       0KiB time=00:00:01.25 bitrate=   0.3kbits/s speed=0.0103x elapsed=0:02:01.30    \nframe=   77 fps=0.6 q=38.0 size=       0KiB time=00:00:01.25 bitrate=   0.3kbits/s speed=0.0103x elapsed=0:02:01.81    \nframe=   77 fps=0.6 q=38.0 size=       0KiB time=00:00:01.25 bitrate=   0.3kbits/s speed=0.0102x elapsed=0:02:02.33    \nframe=   78 fps=0.6 q=32.4 size=       0KiB time=00:00:01.26 bitrate=   0.3kbits/s speed=0.0103x elapsed=0:02:02.86    \nframe=   79 fps=0.6 q=37.4 size=       0KiB time=00:00:01.28 bitrate=   0.3kbits/s speed=0.0104x elapsed=0:02:03.38    \nframe=   80 fps=0.6 q=38.9 size=       0KiB time=00:00:01.30 bitrate=   0.3kbits/s speed=0.0105x elapsed=0:02:03.90    \nframe=   80 fps=0.6 q=38.9 size=       0KiB time=00:00:01.30 bitrate=   0.3kbits/s speed=0.0104x elapsed=0:02:04.42    \nframe=   80 fps=0.6 q=38.9 size=       0KiB time=00:00:01.30 bitrate=   0.3kbits/s speed=0.0104x elapsed=0:02:04.93    \nframe=   81 fps=0.6 q=39.0 size=       0KiB time=00:00:01.31 bitrate=   0.3kbits/s speed=0.0105x elapsed=0:02:05.47    \nframe=   82 fps=0.7 q=38.9 size=       0KiB time=00:00:01.33 bitrate=   0.3kbits/s speed=0.0106x elapsed=0:02:05.98    \nframe=   83 fps=0.7 q=32.8 size=       0KiB time=00:00:01.35 bitrate=   0.3kbits/s speed=0.0107x elapsed=0:02:06.50    \nframe=   84 fps=0.7 q=34.1 size=       0KiB time=00:00:01.36 bitrate=   0.3kbits/s speed=0.0108x elapsed=0:02:07.04    \nframe=   85 fps=0.7 q=39.9 size=       0KiB time=00:00:01.38 bitrate=   0.3kbits/s speed=0.0108x elapsed=0:02:07.55    \nframe=   85 fps=0.7 q=39.9 size=       0KiB time=00:00:01.38 bitrate=   0.3kbits/s speed=0.0108x elapsed=0:02:08.09    \nframe=   85 fps=0.7 q=39.9 size=       0KiB time=00:00:01.38 bitrate=   0.3kbits/s speed=0.0108x elapsed=0:02:08.62    \nframe=   85 fps=0.7 q=39.9 size=       0KiB time=00:00:01.38 bitrate=   0.3kbits/s speed=0.0107x elapsed=0:02:09.14    \nframe=   86 fps=0.7 q=39.0 size=       0KiB time=00:00:01.40 bitrate=   0.3kbits/s speed=0.0108x elapsed=0:02:09.68    \nframe=   86 fps=0.7 q=39.0 size=       0KiB time=00:00:01.40 bitrate=   0.3kbits/s speed=0.0108x elapsed=0:02:10.19    \nframe=   87 fps=0.7 q=39.0 size=       0KiB time=00:00:01.41 bitrate=   0.2kbits/s speed=0.0108x elapsed=0:02:10.73    \nframe=   87 fps=0.7 q=39.0 size=       0KiB time=00:00:01.41 bitrate=   0.2kbits/s speed=0.0108x elapsed=0:02:11.26    \nframe=   88 fps=0.7 q=32.4 size=       0KiB time=00:00:01.43 bitrate=   0.2kbits/s speed=0.0109x elapsed=0:02:11.77    \nframe=   88 fps=0.7 q=32.4 size=       0KiB time=00:00:01.43 bitrate=   0.2kbits/s speed=0.0108x elapsed=0:02:12.32    \nframe=   90 fps=0.7 q=39.0 size=       0KiB time=00:00:01.46 bitrate=   0.2kbits/s speed=0.011x elapsed=0:02:12.86    \nframe=   91 fps=0.7 q=39.0 size=       0KiB time=00:00:01.48 bitrate=   0.2kbits/s speed=0.0111x elapsed=0:02:13.38    \nframe=   91 fps=0.7 q=39.0 size=       0KiB time=00:00:01.48 bitrate=   0.2kbits/s speed=0.0111x elapsed=0:02:13.90    \nframe=   91 fps=0.7 q=39.0 size=       0KiB time=00:00:01.48 bitrate=   0.2kbits/s speed=0.011x elapsed=0:02:14.47    \nframe=   91 fps=0.7 q=39.0 size=       0KiB time=00:00:01.48 bitrate=   0.2kbits/s speed=0.011x elapsed=0:02:15.01    \nframe=   92 fps=0.7 q=40.0 size=       0KiB time=00:00:01.50 bitrate=   0.2kbits/s speed=0.0111x elapsed=0:02:15.53    \nframe=   92 fps=0.7 q=40.0 size=       0KiB time=00:00:01.50 bitrate=   0.2kbits/s speed=0.011x elapsed=0:02:16.06    \nframe=   93 fps=0.7 q=32.0 size=       0KiB time=00:00:01.51 bitrate=   0.2kbits/s speed=0.0111x elapsed=0:02:16.57    \nframe=   93 fps=0.7 q=32.0 size=       0KiB time=00:00:01.51 bitrate=   0.2kbits/s speed=0.0111x elapsed=0:02:17.08    \nframe=   94 fps=0.7 q=37.4 size=     256KiB time=00:00:01.53 bitrate=1367.9kbits/s speed=0.0111x elapsed=0:02:17.60    \nframe=   95 fps=0.7 q=40.0 size=     256KiB time=00:00:01.55 bitrate=1353.2kbits/s speed=0.0112x elapsed=0:02:18.13    \nframe=   95 fps=0.7 q=40.0 size=     256KiB time=00:00:01.55 bitrate=1353.2kbits/s speed=0.0112x elapsed=0:02:18.64    \nframe=   95 fps=0.7 q=40.0 size=     256KiB time=00:00:01.55 bitrate=1353.2kbits/s speed=0.0111x elapsed=0:02:19.17    \nframe=   96 fps=0.7 q=31.5 size=     256KiB time=00:00:01.56 bitrate=1338.8kbits/s speed=0.0112x elapsed=0:02:19.70    \nframe=   96 fps=0.7 q=31.5 size=     256KiB time=00:00:01.56 bitrate=1338.8kbits/s speed=0.0112x elapsed=0:02:20.25    \nframe=   97 fps=0.7 q=38.0 size=     256KiB time=00:00:01.58 bitrate=1324.7kbits/s speed=0.0112x elapsed=0:02:20.77    \nframe=   97 fps=0.7 q=38.0 size=     256KiB time=00:00:01.58 bitrate=1324.7kbits/s speed=0.0112x elapsed=0:02:21.31    \nframe=   98 fps=0.7 q=38.0 size=     256KiB time=00:00:01.60 bitrate=1310.9kbits/s speed=0.0113x elapsed=0:02:21.83    \nframe=   98 fps=0.7 q=38.0 size=     256KiB time=00:00:01.60 bitrate=1310.9kbits/s speed=0.0112x elapsed=0:02:22.35    \nframe=   99 fps=0.7 q=38.0 size=     256KiB time=00:00:01.61 bitrate=1297.4kbits/s speed=0.0113x elapsed=0:02:22.87    \nframe=   99 fps=0.7 q=38.0 size=     256KiB time=00:00:01.61 bitrate=1297.4kbits/s speed=0.0113x elapsed=0:02:23.42    \nframe=   99 fps=0.7 q=38.0 size=     256KiB time=00:00:01.61 bitrate=1297.4kbits/s speed=0.0112x elapsed=0:02:23.97    \nframe=  100 fps=0.7 q=37.0 size=     256KiB time=00:00:01.63 bitrate=1284.2kbits/s speed=0.0113x elapsed=0:02:24.49    \nframe=  101 fps=0.7 q=32.2 size=     256KiB time=00:00:01.65 bitrate=1271.2kbits/s speed=0.0114x elapsed=0:02:25.00    \nframe=  101 fps=0.7 q=32.2 size=     256KiB time=00:00:01.65 bitrate=1271.2kbits/s speed=0.0113x elapsed=0:02:25.53    \nframe=  102 fps=0.7 q=34.7 size=     256KiB time=00:00:01.66 bitrate=1258.5kbits/s speed=0.0114x elapsed=0:02:26.09    \nframe=  102 fps=0.7 q=34.7 size=     256KiB time=00:00:01.66 bitrate=1258.5kbits/s speed=0.0114x elapsed=0:02:26.60    \nframe=  102 fps=0.7 q=34.7 size=     256KiB time=00:00:01.66 bitrate=1258.5kbits/s speed=0.0113x elapsed=0:02:27.15    \nframe=  103 fps=0.7 q=38.0 size=     256KiB time=00:00:01.68 bitrate=1246.0kbits/s speed=0.0114x elapsed=0:02:27.69    \nframe=  103 fps=0.7 q=38.0 size=     256KiB time=00:00:01.68 bitrate=1246.0kbits/s speed=0.0114x elapsed=0:02:28.20    \nframe=  103 fps=0.7 q=38.0 size=     256KiB time=00:00:01.68 bitrate=1246.0kbits/s speed=0.0113x elapsed=0:02:28.73    \nframe=  103 fps=0.7 q=38.0 size=     256KiB time=00:00:01.68 bitrate=1246.0kbits/s speed=0.0113x elapsed=0:02:29.26    \nframe=  103 fps=0.7 q=38.0 size=     256KiB time=00:00:01.68 bitrate=1246.0kbits/s speed=0.0112x elapsed=0:02:29.78    \nframe=  104 fps=0.7 q=38.0 size=     256KiB time=00:00:01.70 bitrate=1233.8kbits/s speed=0.0113x elapsed=0:02:30.35    \nframe=  104 fps=0.7 q=38.0 size=     256KiB time=00:00:01.70 bitrate=1233.8kbits/s speed=0.0113x elapsed=0:02:30.89    \nframe=  105 fps=0.7 q=38.0 size=     256KiB time=00:00:01.71 bitrate=1221.8kbits/s speed=0.0113x elapsed=0:02:31.41    \nframe=  106 fps=0.7 q=32.5 size=     256KiB time=00:00:01.73 bitrate=1210.1kbits/s speed=0.0114x elapsed=0:02:31.95    \nframe=  106 fps=0.7 q=32.5 size=     256KiB time=00:00:01.73 bitrate=1210.1kbits/s speed=0.0114x elapsed=0:02:32.47    \nframe=  106 fps=0.7 q=32.5 size=     256KiB time=00:00:01.73 bitrate=1210.1kbits/s speed=0.0113x elapsed=0:02:33.02    \nframe=  107 fps=0.7 q=33.0 size=     256KiB time=00:00:01.75 bitrate=1198.6kbits/s speed=0.0114x elapsed=0:02:33.57    \nframe=  107 fps=0.7 q=33.0 size=     256KiB time=00:00:01.75 bitrate=1198.6kbits/s speed=0.0114x elapsed=0:02:34.10    \nframe=  108 fps=0.7 q=39.0 size=     256KiB time=00:00:01.76 bitrate=1187.3kbits/s speed=0.0114x elapsed=0:02:34.63    \nframe=  108 fps=0.7 q=39.0 size=     256KiB time=00:00:01.76 bitrate=1187.3kbits/s speed=0.0114x elapsed=0:02:35.16    \nframe=  108 fps=0.7 q=39.0 size=     256KiB time=00:00:01.76 bitrate=1187.3kbits/s speed=0.0113x elapsed=0:02:35.68    \nframe=  108 fps=0.7 q=39.0 size=     256KiB time=00:00:01.76 bitrate=1187.3kbits/s speed=0.0113x elapsed=0:02:36.22    \nframe=  108 fps=0.7 q=39.0 size=     256KiB time=00:00:01.76 bitrate=1187.3kbits/s speed=0.0113x elapsed=0:02:36.77    \nframe=  108 fps=0.7 q=39.0 size=     256KiB time=00:00:01.76 bitrate=1187.3kbits/s speed=0.0112x elapsed=0:02:37.29    \nframe=  109 fps=0.7 q=39.0 size=     256KiB time=00:00:01.78 bitrate=1176.2kbits/s speed=0.0113x elapsed=0:02:37.80    \nframe=  109 fps=0.7 q=39.0 size=     256KiB time=00:00:01.78 bitrate=1176.2kbits/s speed=0.0113x elapsed=0:02:38.32    \nframe=  109 fps=0.7 q=39.0 size=     256KiB time=00:00:01.78 bitrate=1176.2kbits/s speed=0.0112x elapsed=0:02:38.86    \nframe=  110 fps=0.7 q=39.0 size=     256KiB time=00:00:01.80 bitrate=1165.3kbits/s speed=0.0113x elapsed=0:02:39.39    \nframe=  111 fps=0.7 q=32.5 size=     256KiB time=00:00:01.81 bitrate=1154.6kbits/s speed=0.0114x elapsed=0:02:39.93    \nframe=  112 fps=0.7 q=38.8 size=     256KiB time=00:00:01.83 bitrate=1144.1kbits/s speed=0.0114x elapsed=0:02:40.47    \nframe=  112 fps=0.7 q=38.8 size=     256KiB time=00:00:01.83 bitrate=1144.1kbits/s speed=0.0114x elapsed=0:02:40.99    \nframe=  113 fps=0.7 q=39.0 size=     256KiB time=00:00:01.85 bitrate=1133.8kbits/s speed=0.0115x elapsed=0:02:41.52    \nframe=  113 fps=0.7 q=39.0 size=     256KiB time=00:00:01.85 bitrate=1133.8kbits/s speed=0.0114x elapsed=0:02:42.03    \nframe=  114 fps=0.7 q=40.0 size=     256KiB time=00:00:01.86 bitrate=1123.7kbits/s speed=0.0115x elapsed=0:02:42.55    \nframe=  115 fps=0.7 q=39.8 size=     256KiB time=00:00:01.88 bitrate=1113.7kbits/s speed=0.0115x elapsed=0:02:43.07    \nframe=  116 fps=0.7 q=32.4 size=     256KiB time=00:00:01.90 bitrate=1103.9kbits/s speed=0.0116x elapsed=0:02:43.58    \nframe=  118 fps=0.7 q=40.0 size=     256KiB time=00:00:01.93 bitrate=1084.9kbits/s speed=0.0118x elapsed=0:02:44.09    \nframe=  118 fps=0.7 q=40.0 size=     256KiB time=00:00:01.93 bitrate=1084.9kbits/s speed=0.0117x elapsed=0:02:44.61    \nframe=  120 fps=0.7 q=38.9 size=     256KiB time=00:00:01.96 bitrate=1066.5kbits/s speed=0.0119x elapsed=0:02:45.15    \nframe=  120 fps=0.7 q=38.9 size=     256KiB time=00:00:01.96 bitrate=1066.5kbits/s speed=0.0119x elapsed=0:02:45.72    \nframe=  120 fps=0.7 q=38.9 size=     256KiB time=00:00:01.96 bitrate=1066.5kbits/s speed=0.0118x elapsed=0:02:46.25    \nframe=  120 fps=0.7 q=38.9 size=     256KiB time=00:00:01.96 bitrate=1066.5kbits/s speed=0.0118x elapsed=0:02:46.80    \nframe=  120 fps=0.7 q=38.9 size=     256KiB time=00:00:01.96 bitrate=1066.5kbits/s speed=0.0118x elapsed=0:02:47.34    \nframe=  121 fps=0.7 q=32.4 size=     256KiB time=00:00:01.98 bitrate=1057.6kbits/s speed=0.0118x elapsed=0:02:47.87    \nframe=  122 fps=0.7 q=39.0 size=     256KiB time=00:00:02.00 bitrate=1048.8kbits/s speed=0.0119x elapsed=0:02:48.39    \nframe=  122 fps=0.7 q=39.0 size=     256KiB time=00:00:02.00 bitrate=1048.8kbits/s speed=0.0118x elapsed=0:02:48.93    \nframe=  122 fps=0.7 q=39.0 size=     256KiB time=00:00:02.00 bitrate=1048.8kbits/s speed=0.0118x elapsed=0:02:49.47    \nframe=  123 fps=0.7 q=40.0 size=     256KiB time=00:00:02.01 bitrate=1040.1kbits/s speed=0.0119x elapsed=0:02:49.99    \nframe=  123 fps=0.7 q=40.0 size=     256KiB time=00:00:02.01 bitrate=1040.1kbits/s speed=0.0118x elapsed=0:02:50.51    \nframe=  126 fps=0.7 q=31.4 size=     256KiB time=00:00:02.06 bitrate=1014.9kbits/s speed=0.0121x elapsed=0:02:51.03    \nframe=  127 fps=0.7 q=37.9 size=     256KiB time=00:00:02.08 bitrate=1006.8kbits/s speed=0.0121x elapsed=0:02:51.54    \nframe=  128 fps=0.7 q=37.9 size=     256KiB time=00:00:02.10 bitrate= 998.8kbits/s speed=0.0122x elapsed=0:02:52.07    \nframe=  129 fps=0.7 q=37.0 size=     256KiB time=00:00:02.11 bitrate= 990.9kbits/s speed=0.0123x elapsed=0:02:52.58    \nframe=  131 fps=0.8 q=30.9 size=     256KiB time=00:00:02.15 bitrate= 975.6kbits/s speed=0.0124x elapsed=0:02:53.09    \nframe=  132 fps=0.8 q=36.9 size=     256KiB time=00:00:02.16 bitrate= 968.1kbits/s speed=0.0125x elapsed=0:02:53.61    \nframe=  133 fps=0.8 q=37.0 size=     256KiB time=00:00:02.18 bitrate= 960.7kbits/s speed=0.0125x elapsed=0:02:54.13    \nframe=  134 fps=0.8 q=35.7 size=     256KiB time=00:00:02.20 bitrate= 953.4kbits/s speed=0.0126x elapsed=0:02:54.64    \nframe=  135 fps=0.8 q=35.6 size=     256KiB time=00:00:02.21 bitrate= 946.2kbits/s speed=0.0127x elapsed=0:02:55.15    \nframe=  137 fps=0.8 q=35.3 size=     256KiB time=00:00:02.25 bitrate= 932.2kbits/s speed=0.0128x elapsed=0:02:55.68    \nframe=  138 fps=0.8 q=36.0 size=     256KiB time=00:00:02.26 bitrate= 925.4kbits/s speed=0.0129x elapsed=0:02:56.18    \nframe=  139 fps=0.8 q=37.0 size=     256KiB time=00:00:02.28 bitrate= 918.6kbits/s speed=0.0129x elapsed=0:02:56.70    \nframe=  140 fps=0.8 q=32.4 size=     256KiB time=00:00:02.30 bitrate= 912.0kbits/s speed=0.013x elapsed=0:02:57.23    \nframe=  141 fps=0.8 q=36.9 size=     256KiB time=00:00:02.31 bitrate= 905.4kbits/s speed=0.013x elapsed=0:02:57.73    \nframe=  142 fps=0.8 q=36.9 size=     256KiB time=00:00:02.33 bitrate= 898.9kbits/s speed=0.0131x elapsed=0:02:58.26    \nframe=  143 fps=0.8 q=38.0 size=     256KiB time=00:00:02.35 bitrate= 892.6kbits/s speed=0.0131x elapsed=0:02:58.78    \nframe=  145 fps=0.8 q=32.4 size=     256KiB time=00:00:02.38 bitrate= 880.1kbits/s speed=0.0133x elapsed=0:02:59.29    \nframe=  146 fps=0.8 q=36.9 size=     256KiB time=00:00:02.40 bitrate= 874.0kbits/s speed=0.0133x elapsed=0:02:59.82    \nframe=  147 fps=0.8 q=38.0 size=     256KiB time=00:00:02.41 bitrate= 867.9kbits/s speed=0.0134x elapsed=0:03:00.32    \nframe=  148 fps=0.8 q=38.0 size=     256KiB time=00:00:02.43 bitrate= 862.0kbits/s speed=0.0135x elapsed=0:03:00.84    \nframe=  148 fps=0.8 q=38.0 size=     256KiB time=00:00:02.43 bitrate= 862.0kbits/s speed=0.0134x elapsed=0:03:01.37    \nframe=  150 fps=0.8 q=32.3 size=     256KiB time=00:00:02.46 bitrate= 850.3kbits/s speed=0.0136x elapsed=0:03:01.87    \nframe=  151 fps=0.8 q=34.4 size=     256KiB time=00:00:02.48 bitrate= 844.6kbits/s speed=0.0136x elapsed=0:03:02.39    \nframe=  152 fps=0.8 q=38.9 size=     256KiB time=00:00:02.50 bitrate= 839.0kbits/s speed=0.0137x elapsed=0:03:02.92    \nframe=  153 fps=0.8 q=38.9 size=     256KiB time=00:00:02.51 bitrate= 833.4kbits/s speed=0.0137x elapsed=0:03:03.44    \nframe=  154 fps=0.8 q=39.0 size=     256KiB time=00:00:02.53 bitrate= 828.0kbits/s speed=0.0138x elapsed=0:03:03.96    \nframe=  155 fps=0.8 q=33.2 size=     256KiB time=00:00:02.55 bitrate= 822.6kbits/s speed=0.0138x elapsed=0:03:04.47    \nframe=  157 fps=0.8 q=39.0 size=     256KiB time=00:00:02.58 bitrate= 811.9kbits/s speed=0.014x elapsed=0:03:04.99    \nframe=  159 fps=0.9 q=39.0 size=     256KiB time=00:00:02.61 bitrate= 801.6kbits/s speed=0.0141x elapsed=0:03:05.51    \nframe=  160 fps=0.9 q=33.3 size=     256KiB time=00:00:02.63 bitrate= 796.5kbits/s speed=0.0142x elapsed=0:03:06.01    \nframe=  162 fps=0.9 q=38.9 size=     256KiB time=00:00:02.66 bitrate= 786.6kbits/s speed=0.0143x elapsed=0:03:06.53    \nframe=  163 fps=0.9 q=40.0 size=     256KiB time=00:00:02.68 bitrate= 781.7kbits/s speed=0.0143x elapsed=0:03:07.05    \nframe=  164 fps=0.9 q=33.8 size=     256KiB time=00:00:02.70 bitrate= 776.9kbits/s speed=0.0144x elapsed=0:03:07.56    \nframe=  165 fps=0.9 q=38.6 size=     256KiB time=00:00:02.71 bitrate= 772.1kbits/s speed=0.0144x elapsed=0:03:08.08    \nframe=  167 fps=0.9 q=39.7 size=     256KiB time=00:00:02.75 bitrate= 762.7kbits/s speed=0.0146x elapsed=0:03:08.60    \nframe=  167 fps=0.9 q=39.7 size=     256KiB time=00:00:02.75 bitrate= 762.7kbits/s speed=0.0145x elapsed=0:03:09.11    \nframe=  168 fps=0.9 q=33.9 size=     256KiB time=00:00:02.76 bitrate= 758.1kbits/s speed=0.0146x elapsed=0:03:09.63    \nframe=  169 fps=0.9 q=40.0 size=     256KiB time=00:00:02.78 bitrate= 753.6kbits/s speed=0.0146x elapsed=0:03:10.15    \nframe=  170 fps=0.9 q=34.0 size=     256KiB time=00:00:02.80 bitrate= 749.1kbits/s speed=0.0147x elapsed=0:03:10.67    \nframe=  171 fps=0.9 q=38.3 size=     256KiB time=00:00:02.81 bitrate= 744.7kbits/s speed=0.0147x elapsed=0:03:11.19    \nframe=  171 fps=0.9 q=38.3 size=     256KiB time=00:00:02.81 bitrate= 744.7kbits/s speed=0.0147x elapsed=0:03:11.71    \nframe=  171 fps=0.9 q=38.3 size=     256KiB time=00:00:02.81 bitrate= 744.7kbits/s speed=0.0147x elapsed=0:03:12.22    \nframe=  171 fps=0.9 q=38.3 size=     256KiB time=00:00:02.81 bitrate= 744.7kbits/s speed=0.0146x elapsed=0:03:12.74    \nframe=  171 fps=0.9 q=38.3 size=     256KiB time=00:00:02.81 bitrate= 744.7kbits/s speed=0.0146x elapsed=0:03:13.25    \nframe=  171 fps=0.9 q=38.3 size=     256KiB time=00:00:02.81 bitrate= 744.7kbits/s speed=0.0145x elapsed=0:03:13.77    \nframe=  172 fps=0.9 q=40.0 size=     256KiB time=00:00:02.83 bitrate= 740.3kbits/s speed=0.0146x elapsed=0:03:14.31    \nframe=  173 fps=0.9 q=39.9 size=     256KiB time=00:00:02.85 bitrate= 736.0kbits/s speed=0.0146x elapsed=0:03:14.81    \nframe=  173 fps=0.9 q=39.9 size=     256KiB time=00:00:02.85 bitrate= 736.0kbits/s speed=0.0146x elapsed=0:03:15.35    \nframe=  174 fps=0.9 q=34.2 size=     256KiB time=00:00:02.86 bitrate= 731.7kbits/s speed=0.0146x elapsed=0:03:15.89    \nframe=  174 fps=0.9 q=34.2 size=     256KiB time=00:00:02.86 bitrate= 731.7kbits/s speed=0.0146x elapsed=0:03:16.41    \nframe=  175 fps=0.9 q=38.5 size=     512KiB time=00:00:02.88 bitrate=1454.8kbits/s speed=0.0146x elapsed=0:03:16.98    \nframe=  175 fps=0.9 q=38.5 size=     512KiB time=00:00:02.88 bitrate=1454.8kbits/s speed=0.0146x elapsed=0:03:17.52    \nframe=  176 fps=0.9 q=40.0 size=     512KiB time=00:00:02.90 bitrate=1446.4kbits/s speed=0.0146x elapsed=0:03:18.03    \nframe=  176 fps=0.9 q=40.0 size=     512KiB time=00:00:02.90 bitrate=1446.4kbits/s speed=0.0146x elapsed=0:03:18.54    \nframe=  176 fps=0.9 q=40.0 size=     512KiB time=00:00:02.90 bitrate=1446.4kbits/s speed=0.0146x elapsed=0:03:19.06    \nframe=  176 fps=0.9 q=40.0 size=     512KiB time=00:00:02.90 bitrate=1446.4kbits/s speed=0.0145x elapsed=0:03:19.60    \nframe=  177 fps=0.9 q=39.9 size=     512KiB time=00:00:02.91 bitrate=1438.2kbits/s speed=0.0146x elapsed=0:03:20.12    \nframe=  178 fps=0.9 q=34.5 size=     512KiB time=00:00:02.93 bitrate=1430.0kbits/s speed=0.0146x elapsed=0:03:20.64    \nframe=  178 fps=0.9 q=34.5 size=     512KiB time=00:00:02.93 bitrate=1430.0kbits/s speed=0.0146x elapsed=0:03:21.17    \nframe=  179 fps=0.9 q=39.6 size=     512KiB time=00:00:02.95 bitrate=1421.9kbits/s speed=0.0146x elapsed=0:03:21.69    \nframe=  180 fps=0.9 q=39.9 size=     512KiB time=00:00:02.96 bitrate=1413.9kbits/s speed=0.0147x elapsed=0:03:22.22    \nframe=  181 fps=0.9 q=35.7 size=     512KiB time=00:00:02.98 bitrate=1406.0kbits/s speed=0.0147x elapsed=0:03:22.76    \nframe=  181 fps=0.9 q=35.7 size=     512KiB time=00:00:02.98 bitrate=1406.0kbits/s speed=0.0147x elapsed=0:03:23.28    \nframe=  181 fps=0.9 q=35.7 size=     512KiB time=00:00:02.98 bitrate=1406.0kbits/s speed=0.0146x elapsed=0:03:23.80    \nframe=  182 fps=0.9 q=39.9 size=     512KiB time=00:00:03.00 bitrate=1398.2kbits/s speed=0.0147x elapsed=0:03:24.31    \nframe=  182 fps=0.9 q=39.9 size=     512KiB time=00:00:03.00 bitrate=1398.2kbits/s speed=0.0146x elapsed=0:03:24.84    \nframe=  183 fps=0.9 q=41.0 size=     512KiB time=00:00:03.01 bitrate=1390.5kbits/s speed=0.0147x elapsed=0:03:25.36    \nframe=  183 fps=0.9 q=41.0 size=     512KiB time=00:00:03.01 bitrate=1390.5kbits/s speed=0.0147x elapsed=0:03:25.88    \nframe=  183 fps=0.9 q=41.0 size=     512KiB time=00:00:03.01 bitrate=1390.5kbits/s speed=0.0146x elapsed=0:03:26.40    \nframe=  183 fps=0.9 q=41.0 size=     512KiB time=00:00:03.01 bitrate=1390.5kbits/s speed=0.0146x elapsed=0:03:26.92    \nframe=  184 fps=0.9 q=34.3 size=     512KiB time=00:00:03.03 bitrate=1382.9kbits/s speed=0.0146x elapsed=0:03:27.43    \nframe=  184 fps=0.9 q=34.3 size=     512KiB time=00:00:03.03 bitrate=1382.9kbits/s speed=0.0146x elapsed=0:03:27.96    \nframe=  184 fps=0.9 q=34.3 size=     512KiB time=00:00:03.03 bitrate=1382.9kbits/s speed=0.0145x elapsed=0:03:28.47    \nframe=  185 fps=0.9 q=38.5 size=     512KiB time=00:00:03.05 bitrate=1375.3kbits/s speed=0.0146x elapsed=0:03:28.98    \nframe=  186 fps=0.9 q=41.0 size=     512KiB time=00:00:03.06 bitrate=1367.8kbits/s speed=0.0146x elapsed=0:03:29.51    \nframe=  186 fps=0.9 q=41.0 size=     512KiB time=00:00:03.06 bitrate=1367.8kbits/s speed=0.0146x elapsed=0:03:30.04    \nframe=  187 fps=0.9 q=41.0 size=     512KiB time=00:00:03.08 bitrate=1360.4kbits/s speed=0.0146x elapsed=0:03:30.56    \nframe=  188 fps=0.9 q=35.9 size=     512KiB time=00:00:03.10 bitrate=1353.1kbits/s speed=0.0147x elapsed=0:03:31.08    \nframe=  189 fps=0.9 q=39.8 size=     512KiB time=00:00:03.11 bitrate=1345.9kbits/s speed=0.0147x elapsed=0:03:31.60    \nframe=  189 fps=0.9 q=39.8 size=     512KiB time=00:00:03.11 bitrate=1345.9kbits/s speed=0.0147x elapsed=0:03:32.13    \nframe=  189 fps=0.9 q=39.8 size=     512KiB time=00:00:03.11 bitrate=1345.9kbits/s speed=0.0147x elapsed=0:03:32.66    \nframe=  189 fps=0.9 q=39.8 size=     512KiB time=00:00:03.11 bitrate=1345.9kbits/s speed=0.0146x elapsed=0:03:33.19    \nframe=  189 fps=0.9 q=39.8 size=     512KiB time=00:00:03.11 bitrate=1345.9kbits/s speed=0.0146x elapsed=0:03:33.70    \nframe=  190 fps=0.9 q=41.0 size=     512KiB time=00:00:03.13 bitrate=1338.7kbits/s speed=0.0146x elapsed=0:03:34.22    \nframe=  190 fps=0.9 q=41.0 size=     512KiB time=00:00:03.13 bitrate=1338.7kbits/s speed=0.0146x elapsed=0:03:34.77    \nframe=  191 fps=0.9 q=40.8 size=     512KiB time=00:00:03.15 bitrate=1331.6kbits/s speed=0.0146x elapsed=0:03:35.28    \nframe=  191 fps=0.9 q=40.8 size=     512KiB time=00:00:03.15 bitrate=1331.6kbits/s speed=0.0146x elapsed=0:03:35.80    \nframe=  191 fps=0.9 q=40.8 size=     512KiB time=00:00:03.15 bitrate=1331.6kbits/s speed=0.0146x elapsed=0:03:36.32    \nframe=  192 fps=0.9 q=35.1 size=     512KiB time=00:00:03.16 bitrate=1324.6kbits/s speed=0.0146x elapsed=0:03:36.83    \nframe=  193 fps=0.9 q=38.4 size=     512KiB time=00:00:03.18 bitrate=1317.7kbits/s speed=0.0146x elapsed=0:03:37.35    \nframe=  193 fps=0.9 q=38.4 size=     512KiB time=00:00:03.18 bitrate=1317.7kbits/s speed=0.0146x elapsed=0:03:37.86    \nframe=  193 fps=0.9 q=38.4 size=     512KiB time=00:00:03.18 bitrate=1317.7kbits/s speed=0.0146x elapsed=0:03:38.38    \nframe=  193 fps=0.9 q=38.4 size=     512KiB time=00:00:03.18 bitrate=1317.7kbits/s speed=0.0145x elapsed=0:03:38.94    \nframe=  193 fps=0.9 q=38.4 size=     512KiB time=00:00:03.18 bitrate=1317.7kbits/s speed=0.0145x elapsed=0:03:39.48    \nframe=  193 fps=0.9 q=38.4 size=     512KiB time=00:00:03.18 bitrate=1317.7kbits/s speed=0.0145x elapsed=0:03:40.01    \nframe=  194 fps=0.9 q=40.9 size=     512KiB time=00:00:03.20 bitrate=1310.8kbits/s speed=0.0145x elapsed=0:03:40.53    \nframe=  194 fps=0.9 q=40.9 size=     512KiB time=00:00:03.20 bitrate=1310.8kbits/s speed=0.0145x elapsed=0:03:41.04    \nframe=  195 fps=0.9 q=40.7 size=     512KiB time=00:00:03.21 bitrate=1304.0kbits/s speed=0.0145x elapsed=0:03:41.57    \nframe=  195 fps=0.9 q=40.7 size=     512KiB time=00:00:03.21 bitrate=1304.0kbits/s speed=0.0145x elapsed=0:03:42.10    \nframe=  195 fps=0.9 q=40.7 size=     512KiB time=00:00:03.21 bitrate=1304.0kbits/s speed=0.0144x elapsed=0:03:42.65    \nframe=  195 fps=0.9 q=40.7 size=     512KiB time=00:00:03.21 bitrate=1304.0kbits/s speed=0.0144x elapsed=0:03:43.17    \nframe=  196 fps=0.9 q=34.6 size=     512KiB time=00:00:03.23 bitrate=1297.3kbits/s speed=0.0145x elapsed=0:03:43.74    \nframe=  197 fps=0.9 q=39.7 size=     512KiB time=00:00:03.25 bitrate=1290.7kbits/s speed=0.0145x elapsed=0:03:44.28    \nframe=  197 fps=0.9 q=39.7 size=     512KiB time=00:00:03.25 bitrate=1290.7kbits/s speed=0.0145x elapsed=0:03:44.80    \nframe=  197 fps=0.9 q=39.7 size=     512KiB time=00:00:03.25 bitrate=1290.7kbits/s speed=0.0144x elapsed=0:03:45.32    \nframe=  197 fps=0.9 q=39.7 size=     512KiB time=00:00:03.25 bitrate=1290.7kbits/s speed=0.0144x elapsed=0:03:45.83    \nframe=  197 fps=0.9 q=39.7 size=     512KiB time=00:00:03.25 bitrate=1290.7kbits/s speed=0.0144x elapsed=0:03:46.39    \nframe=  198 fps=0.9 q=42.0 size=     512KiB time=00:00:03.26 bitrate=1284.1kbits/s speed=0.0144x elapsed=0:03:46.92    \nframe=  199 fps=0.9 q=42.0 size=     512KiB time=00:00:03.28 bitrate=1277.6kbits/s speed=0.0144x elapsed=0:03:47.44    \nframe=  199 fps=0.9 q=42.0 size=     512KiB time=00:00:03.28 bitrate=1277.6kbits/s speed=0.0144x elapsed=0:03:47.95    \nframe=  199 fps=0.9 q=42.0 size=     512KiB time=00:00:03.28 bitrate=1277.6kbits/s speed=0.0144x elapsed=0:03:48.49    \nframe=  199 fps=0.9 q=42.0 size=     512KiB time=00:00:03.28 bitrate=1277.6kbits/s speed=0.0143x elapsed=0:03:49.00    \nframe=  199 fps=0.9 q=42.0 size=     512KiB time=00:00:03.28 bitrate=1277.6kbits/s speed=0.0143x elapsed=0:03:49.53    \nframe=  200 fps=0.9 q=34.5 size=     512KiB time=00:00:03.30 bitrate=1271.1kbits/s speed=0.0143x elapsed=0:03:50.05    \nframe=  200 fps=0.9 q=34.5 size=     512KiB time=00:00:03.30 bitrate=1271.1kbits/s speed=0.0143x elapsed=0:03:50.56    \nframe=  200 fps=0.9 q=34.5 size=     512KiB time=00:00:03.30 bitrate=1271.1kbits/s speed=0.0143x elapsed=0:03:51.10    \nframe=  200 fps=0.9 q=34.5 size=     512KiB time=00:00:03.30 bitrate=1271.1kbits/s speed=0.0142x elapsed=0:03:51.63    \nframe=  200 fps=0.9 q=34.5 size=     512KiB time=00:00:03.30 bitrate=1271.1kbits/s speed=0.0142x elapsed=0:03:52.14    \nframe=  200 fps=0.9 q=34.5 size=     512KiB time=00:00:03.30 bitrate=1271.1kbits/s speed=0.0142x elapsed=0:03:52.66    \nframe=  200 fps=0.9 q=34.5 size=     512KiB time=00:00:03.30 bitrate=1271.1kbits/s speed=0.0142x elapsed=0:03:53.19    \nframe=  201 fps=0.9 q=41.2 size=     512KiB time=00:00:03.31 bitrate=1264.7kbits/s speed=0.0142x elapsed=0:03:53.70    \nframe=  201 fps=0.9 q=41.2 size=     512KiB time=00:00:03.31 bitrate=1264.7kbits/s speed=0.0142x elapsed=0:03:54.23    \nframe=  202 fps=0.9 q=42.0 size=     512KiB time=00:00:03.33 bitrate=1258.4kbits/s speed=0.0142x elapsed=0:03:54.78    \nframe=  203 fps=0.9 q=34.7 size=     512KiB time=00:00:03.35 bitrate=1252.1kbits/s speed=0.0142x elapsed=0:03:55.33    \nframe=  204 fps=0.9 q=41.6 size=     512KiB time=00:00:03.36 bitrate=1245.9kbits/s speed=0.0143x elapsed=0:03:55.85    \nframe=  205 fps=0.9 q=43.0 size=     512KiB time=00:00:03.38 bitrate=1239.8kbits/s speed=0.0143x elapsed=0:03:56.39    \nframe=  205 fps=0.9 q=43.0 size=     512KiB time=00:00:03.38 bitrate=1239.8kbits/s speed=0.0143x elapsed=0:03:56.95    \nframe=  205 fps=0.9 q=43.0 size=     512KiB time=00:00:03.38 bitrate=1239.8kbits/s speed=0.0142x elapsed=0:03:57.49    \nframe=  205 fps=0.9 q=43.0 size=     512KiB time=00:00:03.38 bitrate=1239.8kbits/s speed=0.0142x elapsed=0:03:58.06    \nframe=  206 fps=0.9 q=43.0 size=     512KiB time=00:00:03.40 bitrate=1233.7kbits/s speed=0.0142x elapsed=0:03:58.65    \nframe=  207 fps=0.9 q=43.0 size=     512KiB time=00:00:03.41 bitrate=1227.7kbits/s speed=0.0143x elapsed=0:03:59.28    \nframe=  207 fps=0.9 q=43.0 size=     512KiB time=00:00:03.41 bitrate=1227.7kbits/s speed=0.0142x elapsed=0:03:59.82    \nframe=  207 fps=0.9 q=43.0 size=     512KiB time=00:00:03.41 bitrate=1227.7kbits/s speed=0.0142x elapsed=0:04:00.40    \nframe=  207 fps=0.9 q=43.0 size=     512KiB time=00:00:03.41 bitrate=1227.7kbits/s speed=0.0142x elapsed=0:04:00.94    \nframe=  207 fps=0.9 q=43.0 size=     512KiB time=00:00:03.41 bitrate=1227.7kbits/s speed=0.0141x elapsed=0:04:01.51    \nframe=  207 fps=0.9 q=43.0 size=     512KiB time=00:00:03.41 bitrate=1227.7kbits/s speed=0.0141x elapsed=0:04:02.14    \nframe=  207 fps=0.9 q=43.0 size=     512KiB time=00:00:03.41 bitrate=1227.7kbits/s speed=0.0141x elapsed=0:04:02.69    \nframe=  207 fps=0.9 q=43.0 size=     512KiB time=00:00:03.41 bitrate=1227.7kbits/s speed=0.014x elapsed=0:04:03.31    \nframe=  207 fps=0.8 q=43.0 size=     512KiB time=00:00:03.41 bitrate=1227.7kbits/s speed=0.014x elapsed=0:04:04.11    \nframe=  207 fps=0.8 q=43.0 size=     512KiB time=00:00:03.41 bitrate=1227.7kbits/s speed=0.014x elapsed=0:04:04.83    \nframe=  207 fps=0.8 q=43.0 size=     512KiB time=00:00:03.41 bitrate=1227.7kbits/s speed=0.0139x elapsed=0:04:05.59    \nframe=  207 fps=0.8 q=43.0 size=     512KiB time=00:00:03.41 bitrate=1227.7kbits/s speed=0.0139x elapsed=0:04:06.21    \nframe=  207 fps=0.8 q=43.0 size=     512KiB time=00:00:03.41 bitrate=1227.7kbits/s speed=0.0138x elapsed=0:04:06.87    \nframe=  207 fps=0.8 q=43.0 size=     512KiB time=00:00:03.41 bitrate=1227.7kbits/s speed=0.0138x elapsed=0:04:07.46    \nframe=  207 fps=0.8 q=43.0 size=     512KiB time=00:00:03.41 bitrate=1227.7kbits/s speed=0.0138x elapsed=0:04:08.07    \nframe=  208 fps=0.8 q=34.9 size=     512KiB time=00:00:03.43 bitrate=1221.7kbits/s speed=0.0138x elapsed=0:04:08.64    \nframe=  208 fps=0.8 q=34.9 size=     512KiB time=00:00:03.43 bitrate=1221.7kbits/s speed=0.0138x elapsed=0:04:09.23    \nframe=  209 fps=0.8 q=40.7 size=     512KiB time=00:00:03.45 bitrate=1215.8kbits/s speed=0.0138x elapsed=0:04:09.78    \nframe=  209 fps=0.8 q=40.7 size=     512KiB time=00:00:03.45 bitrate=1215.8kbits/s speed=0.0138x elapsed=0:04:10.31    \nframe=  209 fps=0.8 q=40.7 size=     512KiB time=00:00:03.45 bitrate=1215.8kbits/s speed=0.0138x elapsed=0:04:10.87    \nframe=  209 fps=0.8 q=40.7 size=     512KiB time=00:00:03.45 bitrate=1215.8kbits/s speed=0.0137x elapsed=0:04:11.46    \nframe=  209 fps=0.8 q=40.7 size=     512KiB time=00:00:03.45 bitrate=1215.8kbits/s speed=0.0137x elapsed=0:04:12.00    \nframe=  209 fps=0.8 q=40.7 size=     512KiB time=00:00:03.45 bitrate=1215.8kbits/s speed=0.0137x elapsed=0:04:12.51    \nframe=  210 fps=0.8 q=42.0 size=     512KiB time=00:00:03.46 bitrate=1210.0kbits/s speed=0.0137x elapsed=0:04:13.04    \nframe=  211 fps=0.8 q=42.0 size=     512KiB time=00:00:03.48 bitrate=1204.2kbits/s speed=0.0137x elapsed=0:04:13.59    \nframe=  211 fps=0.8 q=42.0 size=     512KiB time=00:00:03.48 bitrate=1204.2kbits/s speed=0.0137x elapsed=0:04:14.14    \nframe=  212 fps=0.8 q=34.7 size=     512KiB time=00:00:03.50 bitrate=1198.5kbits/s speed=0.0137x elapsed=0:04:14.66    \nframe=  213 fps=0.8 q=40.5 size=     512KiB time=00:00:03.51 bitrate=1192.8kbits/s speed=0.0138x elapsed=0:04:15.21    \nframe=  213 fps=0.8 q=40.5 size=     512KiB time=00:00:03.51 bitrate=1192.8kbits/s speed=0.0137x elapsed=0:04:15.77    \nframe=  213 fps=0.8 q=40.5 size=     512KiB time=00:00:03.51 bitrate=1192.8kbits/s speed=0.0137x elapsed=0:04:16.29    \nframe=  214 fps=0.8 q=42.0 size=     512KiB time=00:00:03.53 bitrate=1187.2kbits/s speed=0.0138x elapsed=0:04:16.80    \nframe=  214 fps=0.8 q=42.0 size=     512KiB time=00:00:03.53 bitrate=1187.2kbits/s speed=0.0137x elapsed=0:04:17.34    \nframe=  215 fps=0.8 q=42.0 size=     512KiB time=00:00:03.55 bitrate=1181.6kbits/s speed=0.0138x elapsed=0:04:17.86    \nframe=  215 fps=0.8 q=42.0 size=     512KiB time=00:00:03.55 bitrate=1181.6kbits/s speed=0.0137x elapsed=0:04:18.39    \nframe=  215 fps=0.8 q=42.0 size=     512KiB time=00:00:03.55 bitrate=1181.6kbits/s speed=0.0137x elapsed=0:04:18.90    \nframe=  216 fps=0.8 q=34.3 size=     512KiB time=00:00:03.56 bitrate=1176.1kbits/s speed=0.0137x elapsed=0:04:19.47    \nframe=  216 fps=0.8 q=34.3 size=     512KiB time=00:00:03.56 bitrate=1176.1kbits/s speed=0.0137x elapsed=0:04:20.00    \nframe=  216 fps=0.8 q=34.3 size=     512KiB time=00:00:03.56 bitrate=1176.1kbits/s speed=0.0137x elapsed=0:04:20.55    \nframe=  216 fps=0.8 q=34.3 size=     512KiB time=00:00:03.56 bitrate=1176.1kbits/s speed=0.0137x elapsed=0:04:21.06    \nframe=  216 fps=0.8 q=34.3 size=     512KiB time=00:00:03.56 bitrate=1176.1kbits/s speed=0.0136x elapsed=0:04:21.59    \nframe=  217 fps=0.8 q=39.6 size=     512KiB time=00:00:03.58 bitrate=1170.6kbits/s speed=0.0137x elapsed=0:04:22.13    \nframe=  217 fps=0.8 q=39.6 size=     512KiB time=00:00:03.58 bitrate=1170.6kbits/s speed=0.0136x elapsed=0:04:22.72    \nframe=  217 fps=0.8 q=39.6 size=     512KiB time=00:00:03.58 bitrate=1170.6kbits/s speed=0.0136x elapsed=0:04:23.29    \nframe=  217 fps=0.8 q=39.6 size=     512KiB time=00:00:03.58 bitrate=1170.6kbits/s speed=0.0136x elapsed=0:04:23.82    \nframe=  217 fps=0.8 q=39.6 size=     512KiB time=00:00:03.58 bitrate=1170.6kbits/s speed=0.0136x elapsed=0:04:24.38    \nframe=  217 fps=0.8 q=39.6 size=     512KiB time=00:00:03.58 bitrate=1170.6kbits/s speed=0.0135x elapsed=0:04:24.91    \nframe=  217 fps=0.8 q=39.6 size=     512KiB time=00:00:03.58 bitrate=1170.6kbits/s speed=0.0135x elapsed=0:04:25.49    \nframe=  218 fps=0.8 q=41.8 size=     512KiB time=00:00:03.60 bitrate=1165.2kbits/s speed=0.0135x elapsed=0:04:26.01    \nframe=  219 fps=0.8 q=41.9 size=     512KiB time=00:00:03.61 bitrate=1159.8kbits/s speed=0.0136x elapsed=0:04:26.56    \nframe=  220 fps=0.8 q=34.3 size=     512KiB time=00:00:03.63 bitrate=1154.5kbits/s speed=0.0136x elapsed=0:04:27.09    \nframe=  221 fps=0.8 q=40.3 size=     512KiB time=00:00:03.65 bitrate=1149.2kbits/s speed=0.0136x elapsed=0:04:27.62    \nframe=  221 fps=0.8 q=40.3 size=     512KiB time=00:00:03.65 bitrate=1149.2kbits/s speed=0.0136x elapsed=0:04:28.16    \nframe=  221 fps=0.8 q=40.3 size=     512KiB time=00:00:03.65 bitrate=1149.2kbits/s speed=0.0136x elapsed=0:04:28.72    \nframe=  222 fps=0.8 q=41.9 size=     512KiB time=00:00:03.66 bitrate=1144.0kbits/s speed=0.0136x elapsed=0:04:29.24    \nframe=  223 fps=0.8 q=42.0 size=     512KiB time=00:00:03.68 bitrate=1138.8kbits/s speed=0.0137x elapsed=0:04:29.76    \nframe=  223 fps=0.8 q=42.0 size=     512KiB time=00:00:03.68 bitrate=1138.8kbits/s speed=0.0136x elapsed=0:04:30.28    \nframe=  224 fps=0.8 q=33.9 size=     512KiB time=00:00:03.70 bitrate=1133.7kbits/s speed=0.0137x elapsed=0:04:30.80    \nframe=  224 fps=0.8 q=33.9 size=     512KiB time=00:00:03.70 bitrate=1133.7kbits/s speed=0.0136x elapsed=0:04:31.31    \nframe=  225 fps=0.8 q=40.8 size=     512KiB time=00:00:03.71 bitrate=1128.6kbits/s speed=0.0137x elapsed=0:04:31.83    \nframe=  226 fps=0.8 q=42.0 size=     512KiB time=00:00:03.73 bitrate=1123.6kbits/s speed=0.0137x elapsed=0:04:32.37    \nframe=  227 fps=0.8 q=35.5 size=     512KiB time=00:00:03.75 bitrate=1118.6kbits/s speed=0.0137x elapsed=0:04:32.90    \nframe=  229 fps=0.8 q=42.9 size=     512KiB time=00:00:03.78 bitrate=1108.7kbits/s speed=0.0138x elapsed=0:04:33.45    \nframe=  230 fps=0.8 q=44.0 size=     512KiB time=00:00:03.80 bitrate=1103.9kbits/s speed=0.0139x elapsed=0:04:34.00    \nframe=  230 fps=0.8 q=44.0 size=     512KiB time=00:00:03.80 bitrate=1103.9kbits/s speed=0.0138x elapsed=0:04:34.59    \nframe=  232 fps=0.8 q=34.6 size=     512KiB time=00:00:03.83 bitrate=1094.3kbits/s speed=0.0139x elapsed=0:04:35.13    \nframe=  233 fps=0.8 q=41.4 size=     512KiB time=00:00:03.85 bitrate=1089.5kbits/s speed=0.014x elapsed=0:04:35.68    \nframe=  234 fps=0.8 q=42.9 size=     512KiB time=00:00:03.86 bitrate=1084.8kbits/s speed=0.014x elapsed=0:04:36.29    \nframe=  235 fps=0.8 q=34.4 size=     512KiB time=00:00:03.88 bitrate=1080.2kbits/s speed=0.014x elapsed=0:04:36.82    \nframe=  237 fps=0.9 q=41.8 size=     512KiB time=00:00:03.91 bitrate=1071.0kbits/s speed=0.0141x elapsed=0:04:37.36    \nframe=  237 fps=0.9 q=41.8 size=     512KiB time=00:00:03.91 bitrate=1071.0kbits/s speed=0.0141x elapsed=0:04:37.88    \nframe=  237 fps=0.9 q=41.8 size=     512KiB time=00:00:03.91 bitrate=1071.0kbits/s speed=0.0141x elapsed=0:04:38.43    \nframe=  237 fps=0.8 q=41.8 size=     512KiB time=00:00:03.91 bitrate=1071.0kbits/s speed=0.014x elapsed=0:04:38.95    \nframe=  238 fps=0.9 q=34.6 size=     512KiB time=00:00:03.93 bitrate=1066.4kbits/s speed=0.0141x elapsed=0:04:39.49    \nframe=  239 fps=0.9 q=40.8 size=     512KiB time=00:00:03.95 bitrate=1061.9kbits/s speed=0.0141x elapsed=0:04:40.04    \nframe=  240 fps=0.9 q=42.8 size=     512KiB time=00:00:03.95 bitrate=1061.9kbits/s speed=0.0141x elapsed=0:04:40.60    \nframe=  240 fps=0.9 q=42.8 size=     512KiB time=00:00:03.96 bitrate=1057.5kbits/s speed=0.0141x elapsed=0:04:41.17    \nframe=  240 fps=0.9 q=42.8 size=     512KiB time=00:00:03.96 bitrate=1057.5kbits/s speed=0.0141x elapsed=0:04:41.69    \nframe=  240 fps=0.9 q=42.8 size=     512KiB time=00:00:03.96 bitrate=1057.5kbits/s speed=0.0141x elapsed=0:04:42.21    \nframe=  241 fps=0.9 q=35.3 size=     512KiB time=00:00:03.98 bitrate=1053.1kbits/s speed=0.0141x elapsed=0:04:42.71    \nframe=  241 fps=0.9 q=35.3 size=     512KiB time=00:00:03.98 bitrate=1053.1kbits/s speed=0.0141x elapsed=0:04:43.24    \nframe=  242 fps=0.9 q=41.3 size=     512KiB time=00:00:04.00 bitrate=1048.7kbits/s speed=0.0141x elapsed=0:04:43.77    \nframe=  243 fps=0.9 q=42.6 size=     512KiB time=00:00:04.01 bitrate=1044.3kbits/s speed=0.0141x elapsed=0:04:44.28    \nframe=  243 fps=0.9 q=42.6 size=     512KiB time=00:00:04.01 bitrate=1044.3kbits/s speed=0.0141x elapsed=0:04:44.83    \nframe=  245 fps=0.9 q=41.9 size=     512KiB time=00:00:04.05 bitrate=1035.7kbits/s speed=0.0142x elapsed=0:04:45.37    \nframe=  246 fps=0.9 q=43.0 size=     512KiB time=00:00:04.06 bitrate=1031.5kbits/s speed=0.0142x elapsed=0:04:45.89    \nframe=  246 fps=0.9 q=43.0 size=     512KiB time=00:00:04.06 bitrate=1031.5kbits/s speed=0.0142x elapsed=0:04:46.40    \nframe=  246 fps=0.9 q=43.0 size=     512KiB time=00:00:04.06 bitrate=1031.5kbits/s speed=0.0142x elapsed=0:04:46.93    \nframe=  247 fps=0.9 q=43.0 size=     512KiB time=00:00:04.08 bitrate=1027.3kbits/s speed=0.0142x elapsed=0:04:47.55    \nframe=  247 fps=0.9 q=43.0 size=     512KiB time=00:00:04.08 bitrate=1027.3kbits/s speed=0.0142x elapsed=0:04:48.11    \nframe=  247 fps=0.9 q=43.0 size=     512KiB time=00:00:04.08 bitrate=1027.3kbits/s speed=0.0141x elapsed=0:04:48.64    \nframe=  247 fps=0.9 q=43.0 size=     512KiB time=00:00:04.08 bitrate=1027.3kbits/s speed=0.0141x elapsed=0:04:49.17    \nframe=  248 fps=0.9 q=35.1 size=     512KiB time=00:00:04.10 bitrate=1023.1kbits/s speed=0.0142x elapsed=0:04:49.73    \nframe=  248 fps=0.9 q=35.1 size=     512KiB time=00:00:04.10 bitrate=1023.1kbits/s speed=0.0141x elapsed=0:04:50.26    \nframe=  248 fps=0.9 q=35.1 size=     512KiB time=00:00:04.10 bitrate=1023.1kbits/s speed=0.0141x elapsed=0:04:50.78    \nframe=  248 fps=0.9 q=35.1 size=     512KiB time=00:00:04.10 bitrate=1023.1kbits/s speed=0.0141x elapsed=0:04:51.32    \nframe=  248 fps=0.8 q=35.1 size=     512KiB time=00:00:04.10 bitrate=1023.1kbits/s speed=0.014x elapsed=0:04:51.87    \nframe=  248 fps=0.8 q=35.1 size=     512KiB time=00:00:04.10 bitrate=1023.1kbits/s speed=0.014x elapsed=0:04:52.41    \nframe=  248 fps=0.8 q=35.1 size=     512KiB time=00:00:04.10 bitrate=1023.1kbits/s speed=0.014x elapsed=0:04:52.95    \nframe=  249 fps=0.8 q=42.8 size=     768KiB time=00:00:04.11 bitrate=1528.4kbits/s speed=0.014x elapsed=0:04:53.53    \nframe=  250 fps=0.9 q=43.0 size=     768KiB time=00:00:04.13 bitrate=1522.2kbits/s speed=0.0141x elapsed=0:04:54.05    \nframe=  250 fps=0.8 q=43.0 size=     768KiB time=00:00:04.13 bitrate=1522.2kbits/s speed=0.014x elapsed=0:04:54.57    \nframe=  251 fps=0.9 q=34.0 size=     768KiB time=00:00:04.15 bitrate=1516.1kbits/s speed=0.0141x elapsed=0:04:55.09    \nframe=  251 fps=0.8 q=34.0 size=     768KiB time=00:00:04.15 bitrate=1516.1kbits/s speed=0.014x elapsed=0:04:55.61    \nframe=  252 fps=0.9 q=35.5 size=     768KiB time=00:00:04.16 bitrate=1510.0kbits/s speed=0.0141x elapsed=0:04:56.17    \nframe=  253 fps=0.9 q=43.0 size=     768KiB time=00:00:04.18 bitrate=1504.0kbits/s speed=0.0141x elapsed=0:04:56.68    \nframe=  254 fps=0.9 q=44.0 size=     768KiB time=00:00:04.20 bitrate=1498.0kbits/s speed=0.0141x elapsed=0:04:57.22    \nframe=  254 fps=0.9 q=44.0 size=     768KiB time=00:00:04.20 bitrate=1498.0kbits/s speed=0.0141x elapsed=0:04:57.75    \nframe=  254 fps=0.9 q=44.0 size=     768KiB time=00:00:04.20 bitrate=1498.0kbits/s speed=0.0141x elapsed=0:04:58.33    \nframe=  255 fps=0.9 q=33.9 size=     768KiB time=00:00:04.21 bitrate=1492.1kbits/s speed=0.0141x elapsed=0:04:58.89    \nframe=  255 fps=0.9 q=33.9 size=     768KiB time=00:00:04.21 bitrate=1492.1kbits/s speed=0.0141x elapsed=0:04:59.43    \nframe=  256 fps=0.9 q=40.3 size=     768KiB time=00:00:04.23 bitrate=1486.3kbits/s speed=0.0141x elapsed=0:04:59.96    \nframe=  257 fps=0.9 q=41.9 size=     768KiB time=00:00:04.25 bitrate=1480.4kbits/s speed=0.0141x elapsed=0:05:00.53    \nframe=  257 fps=0.9 q=41.9 size=     768KiB time=00:00:04.25 bitrate=1480.4kbits/s speed=0.0141x elapsed=0:05:01.03    \nframe=  257 fps=0.9 q=41.9 size=     768KiB time=00:00:04.25 bitrate=1480.4kbits/s speed=0.0141x elapsed=0:05:01.55    \nframe=  257 fps=0.9 q=41.9 size=     768KiB time=00:00:04.25 bitrate=1480.4kbits/s speed=0.0141x elapsed=0:05:02.11    \nframe=  257 fps=0.8 q=41.9 size=     768KiB time=00:00:04.25 bitrate=1480.4kbits/s speed=0.014x elapsed=0:05:02.68    \nframe=  257 fps=0.8 q=41.9 size=     768KiB time=00:00:04.25 bitrate=1480.4kbits/s speed=0.014x elapsed=0:05:03.20    \nframe=  258 fps=0.8 q=34.7 size=     768KiB time=00:00:04.26 bitrate=1474.6kbits/s speed=0.014x elapsed=0:05:03.84    \nframe=  258 fps=0.8 q=34.7 size=     768KiB time=00:00:04.26 bitrate=1474.6kbits/s speed=0.014x elapsed=0:05:04.42    \nframe=  258 fps=0.8 q=34.7 size=     768KiB time=00:00:04.26 bitrate=1474.6kbits/s speed=0.014x elapsed=0:05:04.94    \nframe=  259 fps=0.8 q=41.9 size=     768KiB time=00:00:04.28 bitrate=1468.9kbits/s speed=0.014x elapsed=0:05:05.49    \nframe=  259 fps=0.8 q=41.9 size=     768KiB time=00:00:04.28 bitrate=1468.9kbits/s speed=0.014x elapsed=0:05:06.09    \nframe=  259 fps=0.8 q=41.9 size=     768KiB time=00:00:04.28 bitrate=1468.9kbits/s speed=0.014x elapsed=0:05:06.62    \nframe=  259 fps=0.8 q=41.9 size=     768KiB time=00:00:04.28 bitrate=1468.9kbits/s speed=0.0139x elapsed=0:05:07.14    \nframe=  260 fps=0.8 q=36.8 size=     768KiB time=00:00:04.30 bitrate=1463.2kbits/s speed=0.014x elapsed=0:05:07.69    \nframe=  260 fps=0.8 q=36.8 size=     768KiB time=00:00:04.30 bitrate=1463.2kbits/s speed=0.0139x elapsed=0:05:08.28    \nframe=  261 fps=0.8 q=40.3 size=     768KiB time=00:00:04.31 bitrate=1457.6kbits/s speed=0.014x elapsed=0:05:08.82    \nframe=  262 fps=0.8 q=41.8 size=     768KiB time=00:00:04.33 bitrate=1452.0kbits/s speed=0.014x elapsed=0:05:09.34    \nframe=  262 fps=0.8 q=41.8 size=     768KiB time=00:00:04.33 bitrate=1452.0kbits/s speed=0.014x elapsed=0:05:09.86    \nframe=  262 fps=0.8 q=41.8 size=     768KiB time=00:00:04.33 bitrate=1452.0kbits/s speed=0.014x elapsed=0:05:10.38    \nframe=  262 fps=0.8 q=41.8 size=     768KiB time=00:00:04.33 bitrate=1452.0kbits/s speed=0.0139x elapsed=0:05:10.92    \nframe=  262 fps=0.8 q=41.8 size=     768KiB time=00:00:04.33 bitrate=1452.0kbits/s speed=0.0139x elapsed=0:05:11.44    \nframe=  263 fps=0.8 q=47.0 size=     768KiB time=00:00:04.35 bitrate=1446.4kbits/s speed=0.0139x elapsed=0:05:12.00    \nframe=  264 fps=0.8 q=47.0 size=     768KiB time=00:00:04.36 bitrate=1440.9kbits/s speed=0.014x elapsed=0:05:12.51    \nframe=  264 fps=0.8 q=47.0 size=     768KiB time=00:00:04.36 bitrate=1440.9kbits/s speed=0.0139x elapsed=0:05:13.03    \nframe=  264 fps=0.8 q=47.0 size=     768KiB time=00:00:04.36 bitrate=1440.9kbits/s speed=0.0139x elapsed=0:05:13.55    \nframe=  264 fps=0.8 q=47.0 size=     768KiB time=00:00:04.36 bitrate=1440.9kbits/s speed=0.0139x elapsed=0:05:14.08    \nframe=  264 fps=0.8 q=47.0 size=     768KiB time=00:00:04.36 bitrate=1440.9kbits/s speed=0.0139x elapsed=0:05:14.62    \nframe=  264 fps=0.8 q=47.0 size=     768KiB time=00:00:04.36 bitrate=1440.9kbits/s speed=0.0139x elapsed=0:05:15.14    \nframe=  264 fps=0.8 q=47.0 size=     768KiB time=00:00:04.36 bitrate=1440.9kbits/s speed=0.0138x elapsed=0:05:15.67    \nframe=  264 fps=0.8 q=47.0 size=     768KiB time=00:00:04.36 bitrate=1440.9kbits/s speed=0.0138x elapsed=0:05:16.25    \nframe=  264 fps=0.8 q=47.0 size=     768KiB time=00:00:04.36 bitrate=1440.9kbits/s speed=0.0138x elapsed=0:05:16.84    \nframe=  264 fps=0.8 q=47.0 size=     768KiB time=00:00:04.36 bitrate=1440.9kbits/s speed=0.0138x elapsed=0:05:17.36    \nframe=  266 fps=0.8 q=48.0 size=     768KiB time=00:00:04.40 bitrate=1430.0kbits/s speed=0.0138x elapsed=0:05:17.87    \nframe=  267 fps=0.8 q=47.9 size=     768KiB time=00:00:04.41 bitrate=1424.6kbits/s speed=0.0139x elapsed=0:05:18.43    \nframe=  267 fps=0.8 q=47.9 size=     768KiB time=00:00:04.41 bitrate=1424.6kbits/s speed=0.0138x elapsed=0:05:18.95    \nframe=  267 fps=0.8 q=47.9 size=     768KiB time=00:00:04.41 bitrate=1424.6kbits/s speed=0.0138x elapsed=0:05:19.51    \nframe=  268 fps=0.8 q=50.0 size=     768KiB time=00:00:04.43 bitrate=1419.2kbits/s speed=0.0139x elapsed=0:05:20.04    \nframe=  269 fps=0.8 q=50.0 size=     768KiB time=00:00:04.45 bitrate=1413.9kbits/s speed=0.0139x elapsed=0:05:20.59    \nframe=  269 fps=0.8 q=50.0 size=     768KiB time=00:00:04.45 bitrate=1413.9kbits/s speed=0.0139x elapsed=0:05:21.16    \nframe=  270 fps=0.8 q=42.8 size=     768KiB time=00:00:04.46 bitrate=1408.6kbits/s speed=0.0139x elapsed=0:05:21.70    \nframe=  271 fps=0.8 q=50.0 size=     768KiB time=00:00:04.48 bitrate=1403.4kbits/s speed=0.0139x elapsed=0:05:22.23    \nframe=  271 fps=0.8 q=50.0 size=     768KiB time=00:00:04.48 bitrate=1403.4kbits/s speed=0.0139x elapsed=0:05:22.75    \nframe=  271 fps=0.8 q=50.0 size=     768KiB time=00:00:04.48 bitrate=1403.4kbits/s speed=0.0139x elapsed=0:05:23.28    \nframe=  271 fps=0.8 q=50.0 size=     768KiB time=00:00:04.48 bitrate=1403.4kbits/s speed=0.0138x elapsed=0:05:23.79    \nframe=  272 fps=0.8 q=50.0 size=     768KiB time=00:00:04.50 bitrate=1398.2kbits/s speed=0.0139x elapsed=0:05:24.31    \nframe=  272 fps=0.8 q=50.0 size=     768KiB time=00:00:04.50 bitrate=1398.2kbits/s speed=0.0139x elapsed=0:05:24.83    \nframe=  273 fps=0.8 q=50.0 size=     768KiB time=00:00:04.51 bitrate=1393.0kbits/s speed=0.0139x elapsed=0:05:25.37    \nframe=  273 fps=0.8 q=50.0 size=     768KiB time=00:00:04.51 bitrate=1393.0kbits/s speed=0.0139x elapsed=0:05:25.98    \nframe=  273 fps=0.8 q=50.0 size=     768KiB time=00:00:04.51 bitrate=1393.0kbits/s speed=0.0138x elapsed=0:05:26.50    \nframe=  273 fps=0.8 q=50.0 size=     768KiB time=00:00:04.51 bitrate=1393.0kbits/s speed=0.0138x elapsed=0:05:27.06    \nframe=  273 fps=0.8 q=50.0 size=     768KiB time=00:00:04.51 bitrate=1393.0kbits/s speed=0.0138x elapsed=0:05:27.64    \nframe=  273 fps=0.8 q=50.0 size=     768KiB time=00:00:04.51 bitrate=1393.0kbits/s speed=0.0138x elapsed=0:05:28.24    \nframe=  274 fps=0.8 q=40.4 size=     768KiB time=00:00:04.53 bitrate=1387.9kbits/s speed=0.0138x elapsed=0:05:28.91    \nframe=  274 fps=0.8 q=40.4 size=     768KiB time=00:00:04.53 bitrate=1387.9kbits/s speed=0.0138x elapsed=0:05:29.49    \nframe=  274 fps=0.8 q=40.4 size=     768KiB time=00:00:04.53 bitrate=1387.9kbits/s speed=0.0137x elapsed=0:05:30.01    \nframe=  274 fps=0.8 q=40.4 size=     768KiB time=00:00:04.53 bitrate=1387.9kbits/s speed=0.0137x elapsed=0:05:30.54    \nframe=  275 fps=0.8 q=48.7 size=     768KiB time=00:00:04.55 bitrate=1382.8kbits/s speed=0.0137x elapsed=0:05:31.06    \nframe=  275 fps=0.8 q=48.7 size=     768KiB time=00:00:04.55 bitrate=1382.8kbits/s speed=0.0137x elapsed=0:05:31.58    \nframe=  275 fps=0.8 q=48.7 size=     768KiB time=00:00:04.55 bitrate=1382.8kbits/s speed=0.0137x elapsed=0:05:32.10    \nframe=  276 fps=0.8 q=48.9 size=     768KiB time=00:00:04.56 bitrate=1377.8kbits/s speed=0.0137x elapsed=0:05:32.64    \nframe=  277 fps=0.8 q=48.9 size=     768KiB time=00:00:04.58 bitrate=1372.8kbits/s speed=0.0138x elapsed=0:05:33.16    \nframe=  277 fps=0.8 q=48.9 size=     768KiB time=00:00:04.58 bitrate=1372.8kbits/s speed=0.0137x elapsed=0:05:33.70    \nframe=  278 fps=0.8 q=49.0 size=     768KiB time=00:00:04.60 bitrate=1367.8kbits/s speed=0.0138x elapsed=0:05:34.23    \nframe=  278 fps=0.8 q=49.0 size=     768KiB time=00:00:04.60 bitrate=1367.8kbits/s speed=0.0137x elapsed=0:05:34.74    \nframe=  280 fps=0.8 q=48.0 size=     768KiB time=00:00:04.63 bitrate=1357.9kbits/s speed=0.0138x elapsed=0:05:35.25    \nframe=  281 fps=0.8 q=49.0 size=     768KiB time=00:00:04.65 bitrate=1353.1kbits/s speed=0.0138x elapsed=0:05:35.78    \nframe=  283 fps=0.8 q=49.0 size=     768KiB time=00:00:04.68 bitrate=1343.4kbits/s speed=0.0139x elapsed=0:05:36.29    \nframe=  285 fps=0.8 q=47.8 size=     768KiB time=00:00:04.71 bitrate=1334.0kbits/s speed=0.014x elapsed=0:05:36.80    \nframe=  286 fps=0.8 q=49.0 size=     768KiB time=00:00:04.73 bitrate=1329.3kbits/s speed=0.014x elapsed=0:05:37.32    \nframe=  287 fps=0.8 q=49.0 size=     768KiB time=00:00:04.75 bitrate=1324.6kbits/s speed=0.0141x elapsed=0:05:37.85    \nframe=  288 fps=0.9 q=37.6 size=     768KiB time=00:00:04.76 bitrate=1320.0kbits/s speed=0.0141x elapsed=0:05:38.37    \nframe=  289 fps=0.9 q=44.8 size=     768KiB time=00:00:04.78 bitrate=1315.4kbits/s speed=0.0141x elapsed=0:05:38.89    \nframe=  290 fps=0.9 q=46.0 size=     768KiB time=00:00:04.80 bitrate=1310.8kbits/s speed=0.0141x elapsed=0:05:39.40    \nframe=  291 fps=0.9 q=45.0 size=     768KiB time=00:00:04.81 bitrate=1306.3kbits/s speed=0.0142x elapsed=0:05:39.93    \nframe=  291 fps=0.9 q=45.0 size=     768KiB time=00:00:04.81 bitrate=1306.3kbits/s speed=0.0141x elapsed=0:05:40.44    \nframe=  294 fps=0.9 q=45.0 size=     768KiB time=00:00:04.86 bitrate=1292.8kbits/s speed=0.0143x elapsed=0:05:40.96    \nframe=  295 fps=0.9 q=45.9 size=     768KiB time=00:00:04.88 bitrate=1288.4kbits/s speed=0.0143x elapsed=0:05:41.54    \nframe=  295 fps=0.9 q=45.9 size=     768KiB time=00:00:04.88 bitrate=1288.4kbits/s speed=0.0143x elapsed=0:05:42.09    \nframe=  295 fps=0.9 q=45.9 size=     768KiB time=00:00:04.88 bitrate=1288.4kbits/s speed=0.0143x elapsed=0:05:42.62    \nframe=  297 fps=0.9 q=39.5 size=     768KiB time=00:00:04.91 bitrate=1279.7kbits/s speed=0.0143x elapsed=0:05:43.16    \nframe=  298 fps=0.9 q=40.3 size=     768KiB time=00:00:04.93 bitrate=1275.4kbits/s speed=0.0144x elapsed=0:05:43.71    \n[mp4 @ 000001bd33dca980] Starting second pass: moving the moov atom to the beginning of the file\n[out#0/mp4 @ 000001bd3465f040] video:946KiB audio:0KiB subtitle:0KiB other streams:0KiB global headers:2KiB muxing overhead: 0.727163%\nframe=  300 fps=0.9 q=42.8 Lsize=     953KiB time=00:00:04.96 bitrate=1571.2kbits/s speed=0.0144x elapsed=0:05:43.92    \nx265 [info]: frame I:      2, Avg QP:37.56  kb/s: 9703.20 \nx265 [info]: frame P:     73, Avg QP:34.81  kb/s: 5293.85 \nx265 [info]: frame B:    225, Avg QP:40.66  kb/s: 259.59  \nx265 [info]: Weighted P-Frames: Y:0.0% UV:0.0%\n\nencoded 300 frames in 343.71s (0.87 fps), 1547.55 kb/s, Avg QP:39.21\n",
  "seconds": 344.37260913848877,
  "probe_out": {}
}